<svg xmlns:mydata="http://www.w3.org/2000/svg" mydata:contrastcolor="001A70" mydata:template="SingleColorHex1" mydata:presentation="2.5" mydata:layouttype="undefined" mydata:specialfontid="undefined" mydata:id1="072" mydata:id2="014" mydata:companyname="Karine Vilhena" mydata:companytagline="Arquiteura" version="1.1" xmlns="http://www.w3.org/2000/svg" xmlns:xlink="http://www.w3.org/1999/xlink" viewBox="0 0 550 470"><g fill="#7a7256" fill-rule="nonzero" stroke="none" stroke-width="1" stroke-linecap="butt" stroke-linejoin="miter" stroke-miterlimit="10" stroke-dasharray="" stroke-dashoffset="0" font-family="none" font-weight="none" font-size="none" text-anchor="none" style="mix-blend-mode: normal"><g data-paper-data="{&quot;isGlobalGroup&quot;:true}"><g data-paper-data="{&quot;isSecondaryText&quot;:true}"><path d="M173.64076,354.9046c-0.02385,-0.05565 -0.06559,-0.15503 -0.12522,-0.29813c-0.05963,-0.1431 -0.13317,-0.31801 -0.22062,-0.52471c-0.08745,-0.2067 -0.18285,-0.43527 -0.28621,-0.6857c-0.10335,-0.25043 -0.21068,-0.5108 -0.32198,-0.7811h-2.99324l-0.95402,2.28965h-1.44295c0.0318,-0.07155 0.10733,-0.24844 0.22658,-0.53067c0.11925,-0.28223 0.26832,-0.63204 0.4472,-1.04942c0.17888,-0.41738 0.37763,-0.88247 0.59626,-1.39525c0.21863,-0.51279 0.44322,-1.03551 0.67378,-1.56817c0.23055,-0.53266 0.45515,-1.05538 0.67378,-1.56817c0.21863,-0.51279 0.41738,-0.97787 0.59626,-1.39525c0.17888,-0.41738 0.32794,-0.76719 0.4472,-1.04942c0.11925,-0.28223 0.19478,-0.45912 0.22658,-0.53067c0.0318,0.07155 0.10931,0.24844 0.23254,0.53067c0.12323,0.28223 0.27428,0.63204 0.45316,1.04942c0.17888,0.41738 0.37763,0.88247 0.59626,1.39525c0.21863,0.51279 0.44322,1.03551 0.67378,1.56817c0.23055,0.53266 0.45515,1.05538 0.67378,1.56817c0.21863,0.51279 0.41738,0.97787 0.59626,1.39525c0.17888,0.41738 0.32794,0.76719 0.4472,1.04942c0.11925,0.28223 0.19478,0.45912 0.22658,0.53067zM170.19436,351.38665h1.97959l-0.85862,-2.07499c-0.00795,-0.00795 -0.02783,-0.06161 -0.05963,-0.16099c-0.0318,-0.09938 -0.05565,-0.18882 -0.07155,-0.26832c-0.0159,0.0795 -0.03975,0.16894 -0.07155,0.26832c-0.0318,0.09938 -0.0477,0.15304 -0.0477,0.16099z" data-paper-data="{&quot;glyphName&quot;:&quot;A&quot;,&quot;glyphIndex&quot;:0,&quot;firstGlyphOfWord&quot;:true,&quot;word&quot;:1}"></path><path d="M192.52384,354.9046v-8.6935h2.4566c0.47701,0 0.91228,0.0636 1.30581,0.1908c0.39353,0.1272 0.72744,0.31006 1.00172,0.54856c0.27428,0.2385 0.48695,0.53266 0.638,0.88247c0.15105,0.34981 0.22658,0.74334 0.22658,1.1806c0,0.2385 -0.02385,0.47701 -0.07155,0.71551c-0.0477,0.2385 -0.12323,0.46906 -0.22658,0.69166c-0.10335,0.2226 -0.2385,0.42732 -0.40546,0.61415c-0.16695,0.18683 -0.36571,0.34782 -0.59626,0.48297c0.1749,0.27826 0.34583,0.55055 0.51279,0.81688c0.16695,0.26633 0.33589,0.53465 0.50682,0.80495c0.17093,0.27031 0.34782,0.54856 0.53067,0.83477c0.18285,0.28621 0.38161,0.59626 0.59626,0.93017h-1.75301c-0.35776,-0.55651 -0.69564,-1.08321 -1.01365,-1.58009c-0.31801,-0.49689 -0.62409,-0.96793 -0.91824,-1.41314h-0.11925h-1.21637v2.99324zM193.97872,350.53996h1.16867c0.30211,0 0.55254,-0.05168 0.75129,-0.15503c0.19875,-0.10335 0.35776,-0.22857 0.47701,-0.37565c0.11925,-0.14708 0.20273,-0.30608 0.25043,-0.47701c0.0477,-0.17093 0.07155,-0.32794 0.07155,-0.47105c0,-0.13515 -0.02186,-0.28819 -0.06559,-0.45912c-0.04373,-0.17093 -0.12323,-0.33192 -0.2385,-0.48297c-0.11528,-0.15105 -0.27229,-0.27826 -0.47105,-0.38161c-0.19875,-0.10335 -0.45316,-0.15503 -0.76322,-0.15503h-1.1806z" data-paper-data="{&quot;glyphName&quot;:&quot;R&quot;,&quot;glyphIndex&quot;:1,&quot;word&quot;:1}"></path><path d="M215.93305,350.57574c0,-0.60421 0.11528,-1.17662 0.34583,-1.71723c0.23055,-0.54061 0.54657,-1.01365 0.94806,-1.4191c0.40148,-0.40546 0.87054,-0.72744 1.40718,-0.96594c0.53664,-0.2385 1.11103,-0.35776 1.7232,-0.35776c0.60421,0 1.17662,0.11925 1.71723,0.35776c0.54061,0.2385 1.01365,0.56049 1.4191,0.96594c0.40546,0.40546 0.72545,0.87849 0.95998,1.4191c0.23453,0.54061 0.35179,1.11302 0.35179,1.71723c0,0.56446 -0.08348,1.09911 -0.25043,1.60394c-0.16695,0.50484 -0.41341,0.98781 -0.73936,1.44892l1.276,-0.10733v1.38333h-3.80415c-0.159,0.0318 -0.31403,0.05565 -0.46508,0.07155c-0.15105,0.0159 -0.30608,0.02385 -0.46508,0.02385c-0.61216,0 -1.18656,-0.11528 -1.7232,-0.34583c-0.53664,-0.23055 -1.0057,-0.54657 -1.40718,-0.94806c-0.40148,-0.40148 -0.7175,-0.87054 -0.94806,-1.40718c-0.23055,-0.53664 -0.34583,-1.11103 -0.34583,-1.7232zM217.38793,350.57574c0,0.42136 0.0795,0.81688 0.2385,1.18656c0.159,0.36968 0.37366,0.69166 0.64396,0.96594c0.27031,0.27428 0.58831,0.49092 0.95402,0.64993c0.36571,0.159 0.75527,0.2385 1.16867,0.2385c0.41341,0 0.79899,-0.0795 1.15675,-0.2385c0.35776,-0.159 0.6698,-0.37565 0.93613,-0.64993c0.26633,-0.27428 0.47701,-0.59626 0.63204,-0.96594c0.15503,-0.36968 0.23254,-0.7652 0.23254,-1.18656c0,-0.42136 -0.07751,-0.81688 -0.23254,-1.18656c-0.15503,-0.36968 -0.36769,-0.69365 -0.638,-0.97191c-0.27031,-0.27826 -0.58632,-0.49689 -0.94806,-0.65589c-0.36173,-0.159 -0.7493,-0.2385 -1.16271,-0.2385c-0.41341,0 -0.80098,0.0795 -1.16271,0.2385c-0.36173,0.159 -0.67775,0.37763 -0.94806,0.65589c-0.27031,0.27826 -0.48297,0.60222 -0.638,0.97191c-0.15503,0.36968 -0.23254,0.7652 -0.23254,1.18656z" data-paper-data="{&quot;glyphName&quot;:&quot;Q&quot;,&quot;glyphIndex&quot;:2,&quot;word&quot;:1}"></path><path d="M247.27968,355c-0.46906,0 -0.90831,-0.07751 -1.31774,-0.23254c-0.40943,-0.15503 -0.7652,-0.37167 -1.06731,-0.64993c-0.30211,-0.27826 -0.54061,-0.61415 -0.71551,-1.00768c-0.1749,-0.39353 -0.26236,-0.8288 -0.26236,-1.30581v-5.59294h1.45488v5.55716c0,0.25441 0.04969,0.49291 0.14907,0.71551c0.09938,0.2226 0.23453,0.41738 0.40546,0.58434c0.17093,0.16695 0.37167,0.30012 0.60222,0.3995c0.23055,0.09938 0.48098,0.14907 0.75129,0.14907c0.27031,0 0.52272,-0.04969 0.75725,-0.14907c0.23453,-0.09938 0.43925,-0.23254 0.61415,-0.3995c0.1749,-0.16695 0.31204,-0.36173 0.41142,-0.58434c0.09938,-0.2226 0.14907,-0.46111 0.14907,-0.71551v-5.55716h1.45488v5.59294c0,0.47701 -0.08745,0.91228 -0.26236,1.30581c-0.1749,0.39353 -0.4154,0.72943 -0.72148,1.00768c-0.30608,0.27826 -0.66583,0.4949 -1.07923,0.64993c-0.41341,0.15503 -0.85464,0.23254 -1.3237,0.23254z" data-paper-data="{&quot;glyphName&quot;:&quot;U&quot;,&quot;glyphIndex&quot;:3,&quot;word&quot;:1}"></path><path d="M266.25858,346.2111h1.4668v8.6935h-1.4668z" data-paper-data="{&quot;glyphName&quot;:&quot;I&quot;,&quot;glyphIndex&quot;:4,&quot;word&quot;:1}"></path><path d="M287.38201,346.2111v1.39525h-2.14654v7.29825h-1.4668v-7.29825h-2.09884v-1.39525z" data-paper-data="{&quot;glyphName&quot;:&quot;T&quot;,&quot;glyphIndex&quot;:5,&quot;word&quot;:1}"></path><path d="M304.26508,354.9046v-8.6935h5.77182v1.3237h-4.31694v2.33735h3.83993v1.35948h-3.83993v2.3135h4.48389v1.35948z" data-paper-data="{&quot;glyphName&quot;:&quot;E&quot;,&quot;glyphIndex&quot;:6,&quot;word&quot;:1}"></path><path d="M330.80043,355c-0.46906,0 -0.90831,-0.07751 -1.31774,-0.23254c-0.40943,-0.15503 -0.7652,-0.37167 -1.06731,-0.64993c-0.30211,-0.27826 -0.54061,-0.61415 -0.71551,-1.00768c-0.1749,-0.39353 -0.26236,-0.8288 -0.26236,-1.30581v-5.59294h1.45488v5.55716c0,0.25441 0.04969,0.49291 0.14907,0.71551c0.09938,0.2226 0.23453,0.41738 0.40546,0.58434c0.17093,0.16695 0.37167,0.30012 0.60222,0.3995c0.23055,0.09938 0.48098,0.14907 0.75129,0.14907c0.27031,0 0.52272,-0.04969 0.75725,-0.14907c0.23453,-0.09938 0.43925,-0.23254 0.61415,-0.3995c0.1749,-0.16695 0.31204,-0.36173 0.41142,-0.58434c0.09938,-0.2226 0.14907,-0.46111 0.14907,-0.71551v-5.55716h1.45488v5.59294c0,0.47701 -0.08745,0.91228 -0.26236,1.30581c-0.1749,0.39353 -0.4154,0.72943 -0.72148,1.00768c-0.30608,0.27826 -0.66583,0.4949 -1.07923,0.64993c-0.41341,0.15503 -0.85464,0.23254 -1.3237,0.23254z" data-paper-data="{&quot;glyphName&quot;:&quot;U&quot;,&quot;glyphIndex&quot;:7,&quot;word&quot;:1}"></path><path d="M353.07061,354.9046v-8.6935h2.4566c0.47701,0 0.91228,0.0636 1.30581,0.1908c0.39353,0.1272 0.72744,0.31006 1.00172,0.54856c0.27428,0.2385 0.48695,0.53266 0.638,0.88247c0.15105,0.34981 0.22658,0.74334 0.22658,1.1806c0,0.2385 -0.02385,0.47701 -0.07155,0.71551c-0.0477,0.2385 -0.12323,0.46906 -0.22658,0.69166c-0.10335,0.2226 -0.2385,0.42732 -0.40546,0.61415c-0.16695,0.18683 -0.36571,0.34782 -0.59626,0.48297c0.1749,0.27826 0.34583,0.55055 0.51279,0.81688c0.16695,0.26633 0.33589,0.53465 0.50682,0.80495c0.17093,0.27031 0.34782,0.54856 0.53067,0.83477c0.18285,0.28621 0.38161,0.59626 0.59626,0.93017h-1.75301c-0.35776,-0.55651 -0.69564,-1.08321 -1.01365,-1.58009c-0.31801,-0.49689 -0.62409,-0.96793 -0.91824,-1.41314h-0.11925h-1.21637v2.99324zM354.52549,350.53996h1.16867c0.30211,0 0.55254,-0.05168 0.75129,-0.15503c0.19875,-0.10335 0.35776,-0.22857 0.47701,-0.37565c0.11925,-0.14708 0.20273,-0.30608 0.25043,-0.47701c0.0477,-0.17093 0.07155,-0.32794 0.07155,-0.47105c0,-0.13515 -0.02186,-0.28819 -0.06559,-0.45912c-0.04373,-0.17093 -0.12323,-0.33192 -0.2385,-0.48297c-0.11528,-0.15105 -0.27229,-0.27826 -0.47105,-0.38161c-0.19875,-0.10335 -0.45316,-0.15503 -0.76322,-0.15503h-1.1806z" data-paper-data="{&quot;glyphName&quot;:&quot;R&quot;,&quot;glyphIndex&quot;:8,&quot;word&quot;:1}"></path><path d="M381.26052,354.9046c-0.02385,-0.05565 -0.06559,-0.15503 -0.12522,-0.29813c-0.05963,-0.1431 -0.13317,-0.31801 -0.22062,-0.52471c-0.08745,-0.2067 -0.18285,-0.43527 -0.28621,-0.6857c-0.10335,-0.25043 -0.21068,-0.5108 -0.32198,-0.7811h-2.99324l-0.95402,2.28965h-1.44295c0.0318,-0.07155 0.10733,-0.24844 0.22658,-0.53067c0.11925,-0.28223 0.26832,-0.63204 0.4472,-1.04942c0.17888,-0.41738 0.37763,-0.88247 0.59626,-1.39525c0.21863,-0.51279 0.44322,-1.03551 0.67378,-1.56817c0.23055,-0.53266 0.45515,-1.05538 0.67378,-1.56817c0.21863,-0.51279 0.41738,-0.97787 0.59626,-1.39525c0.17888,-0.41738 0.32794,-0.76719 0.4472,-1.04942c0.11925,-0.28223 0.19478,-0.45912 0.22658,-0.53067c0.0318,0.07155 0.10931,0.24844 0.23254,0.53067c0.12323,0.28223 0.27428,0.63204 0.45316,1.04942c0.17888,0.41738 0.37763,0.88247 0.59626,1.39525c0.21863,0.51279 0.44322,1.03551 0.67378,1.56817c0.23055,0.53266 0.45515,1.05538 0.67378,1.56817c0.21863,0.51279 0.41738,0.97787 0.59626,1.39525c0.17888,0.41738 0.32794,0.76719 0.4472,1.04942c0.11925,0.28223 0.19478,0.45912 0.22658,0.53067zM377.81412,351.38665h1.97959l-0.85862,-2.07499c-0.00795,-0.00795 -0.02783,-0.06161 -0.05963,-0.16099c-0.0318,-0.09938 -0.05565,-0.18882 -0.07155,-0.26832c-0.0159,0.0795 -0.03975,0.16894 -0.07155,0.26832c-0.0318,0.09938 -0.0477,0.15304 -0.0477,0.16099z" data-paper-data="{&quot;glyphName&quot;:&quot;A&quot;,&quot;glyphIndex&quot;:9,&quot;lastGlyphOfWord&quot;:true,&quot;word&quot;:1}"></path></g><g data-paper-data="{&quot;isPrimaryText&quot;:true}"><path d="M128.43884,336.79117v-9.43277c0.81256,0 1.58979,0 2.43768,-0.14131l5.44062,9.57408h7.03041v-0.9892l-6.71246,-10.88124c4.91069,-3.14426 4.76938,-7.80765 4.76938,-12.85965c-2.19038,0 -4.34543,0 -6.50048,0c0,4.62806 0.31796,9.36211 -6.00588,9.36211h-0.45927v-9.36211c-2.19038,0 -4.3101,0 -6.42983,0v24.7301c2.11972,0 4.23945,0 6.42983,0z" data-paper-data="{&quot;glyphName&quot;:&quot;K&quot;,&quot;glyphIndex&quot;:0,&quot;firstGlyphOfWord&quot;:true,&quot;word&quot;:1}"></path><path d="M163.83821,336.79117h6.18252v-0.91855l-11.16387,-24.12951h-2.72031l-11.12854,24.12951v0.91855h6.18252l1.44848,-3.10893h9.75072zM160.34066,328.27695h-5.65259l2.79097,-6.50048z" data-paper-data="{&quot;glyphName&quot;:&quot;A&quot;,&quot;glyphIndex&quot;:1,&quot;word&quot;:1}"></path><path d="M189.31021,328.02965c6.25318,-4.23945 4.48675,-15.93325 -5.22865,-15.96858c-3.60353,0 -7.27771,0 -10.84591,0c0,8.26692 0,16.49851 0,24.7301c2.04907,0 4.20412,0 6.32384,0v-7.27771h3.28557l4.23945,7.27771h7.06574v-0.91855zM184.08156,323.89619h-4.52208c0,-1.97841 0,-4.16879 0,-6.18252c1.48381,0 3.03827,-0.03533 4.52208,0c3.60353,0.03533 3.42689,6.18252 0,6.18252z" data-paper-data="{&quot;glyphName&quot;:&quot;R&quot;,&quot;glyphIndex&quot;:2,&quot;word&quot;:1}"></path><path d="M205.31412,331.24457v-13.67221h2.89695v-5.51128h-12.04709v5.51128h2.89695v13.67221h-3.14426v5.54661h12.54169v-5.54661z" data-paper-data="{&quot;glyphName&quot;:&quot;I&quot;,&quot;glyphIndex&quot;:3,&quot;word&quot;:1}"></path><path d="M231.59868,336.8265h2.26104v-24.76543c-2.15505,0 -4.3101,0 -6.46515,0v12.11775l-12.50636,-12.22373h-2.29637v24.83608c2.15505,0 4.34543,0 6.53581,0v-12.15308z" data-paper-data="{&quot;glyphName&quot;:&quot;N&quot;,&quot;glyphIndex&quot;:4,&quot;word&quot;:1}"></path><path d="M255.58687,312.06108c-5.79391,0 -9.7154,0 -15.43865,0c0,8.19626 0,16.46318 0,24.7301c5.72325,0 9.9627,0 15.75661,0c0,-1.87242 0,-3.78017 0,-5.61727c-3.70951,0 -5.82924,0 -9.46809,0c0,-1.48381 0,-2.89695 0,-4.34543h8.40823c0,-1.87242 0,-3.74484 0,-5.61727h-8.40823v-3.49754c3.63886,0 5.47595,0 9.15014,0c0,-1.90775 0,-3.8155 0,-5.65259z" data-paper-data="{&quot;glyphName&quot;:&quot;E&quot;,&quot;glyphIndex&quot;:5,&quot;lastGlyphOfWord&quot;:true,&quot;word&quot;:1}"></path><path d="M274.48773,312.06108h-6.07654v0.95388l10.59861,24.05885h2.68498l10.49263,-24.05885v-0.95388h-6.07654l-5.65259,13.99017h-0.17664z" data-paper-data="{&quot;glyphName&quot;:&quot;V&quot;,&quot;glyphIndex&quot;:6,&quot;firstGlyphOfWord&quot;:true,&quot;word&quot;:2}"></path><path d="M303.49261,331.24457v-13.67221h2.89695v-5.51128h-12.04709v5.51128h2.89695v13.67221h-3.14426v5.54661h12.54169v-5.54661z" data-paper-data="{&quot;glyphName&quot;:&quot;I&quot;,&quot;glyphIndex&quot;:7,&quot;word&quot;:2}"></path><path d="M317.09416,312.06108c-2.15505,0 -4.23945,0 -6.35917,0v24.7301c5.01668,0 10.24533,0 15.33266,0c0,-2.11972 0,-3.5682 0,-5.68792h-8.97349c0,-10.52796 0,-6.25318 0,-19.04218z" data-paper-data="{&quot;glyphName&quot;:&quot;L&quot;,&quot;glyphIndex&quot;:8,&quot;word&quot;:2}"></path><path d="M351.00972,312.06108c-2.15505,0 -4.3101,0 -6.46515,0v8.97349h-7.631v-8.97349c-2.15505,0 -4.34543,0 -6.46515,0v24.7301c2.11972,0 4.3101,0 6.46515,0v-9.92737h7.631v9.92737c2.15505,0 4.3101,0 6.46515,0z" data-paper-data="{&quot;glyphName&quot;:&quot;H&quot;,&quot;glyphIndex&quot;:9,&quot;word&quot;:2}"></path><path d="M372.77221,312.06108c-5.79391,0 -9.7154,0 -15.43865,0c0,8.19626 0,16.46318 0,24.7301c5.72325,0 9.9627,0 15.75661,0c0,-1.87242 0,-3.78017 0,-5.61727c-3.70951,0 -5.82924,0 -9.46809,0c0,-1.48381 0,-2.89695 0,-4.34543h8.40823c0,-1.87242 0,-3.74484 0,-5.61727h-8.40823v-3.49754c3.63886,0 5.47595,0 9.15014,0c0,-1.90775 0,-3.8155 0,-5.65259z" data-paper-data="{&quot;glyphName&quot;:&quot;E&quot;,&quot;glyphIndex&quot;:10,&quot;word&quot;:2}"></path><path d="M397.53764,336.8265h2.26104v-24.76543c-2.15505,0 -4.3101,0 -6.46515,0v12.11775l-12.50636,-12.22373h-2.29637v24.83608c2.15505,0 4.34543,0 6.53581,0v-12.15308z" data-paper-data="{&quot;glyphName&quot;:&quot;N&quot;,&quot;glyphIndex&quot;:11,&quot;word&quot;:2}"></path><path d="M421.80846,336.79117h6.18252v-0.91855l-11.16387,-24.12951h-2.72031l-11.12854,24.12951v0.91855h6.18252l1.44848,-3.10893h9.75072zM418.31092,328.27695h-5.65259l2.79097,-6.50048z" data-paper-data="{&quot;glyphName&quot;:&quot;A&quot;,&quot;glyphIndex&quot;:12,&quot;lastGlyphOfWord&quot;:true,&quot;word&quot;:2}"></path></g><g data-paper-data="{&quot;fillRule&quot;:&quot;nonzero&quot;,&quot;isIcon&quot;:true,&quot;iconStyle&quot;:&quot;standalone&quot;,&quot;selectedEffects&quot;:{&quot;container&quot;:&quot;&quot;,&quot;transformation&quot;:&quot;&quot;,&quot;pattern&quot;:&quot;&quot;},&quot;bounds&quot;:{&quot;x&quot;:224.6903141279252,&quot;y&quot;:115,&quot;width&quot;:100.61937174414965,&quot;height&quot;:167.77696919759302},&quot;iconType&quot;:&quot;initial&quot;,&quot;initialText&quot;:&quot;K&quot;,&quot;rawInitialId&quot;:448}"><path d="M262.48108,182.1576v4.79696h34.1638l-4.79696,-4.79696zM262.48108,196.4315h43.75773l-4.79696,-4.67997h-38.96077zM311.03578,201.22848h-48.55471v4.79696h53.23468zM262.48108,210.82241v4.79696h62.82861l-4.79696,-4.79696zM291.84789,282.77697h4.79696v-62.94562h-4.79696zM291.84789,115v67.15758l4.79696,-2.45698v-64.7006zM301.44184,282.77697h4.79696v-62.94562h-4.79696zM301.44184,115v62.36062l4.79696,-2.45698v-59.90363zM310.91878,282.77697h4.79696v-62.94562h-4.79696zM311.03578,115v57.56366l4.67997,-2.45698v-55.10666zM320.51272,282.77697h4.79696v-67.15758h-4.79696zM320.51272,115v52.76667l4.79696,-2.45698v-50.30969zM224.69031,282.77697h4.79696v-167.77697h-4.79696zM234.28426,282.77697h4.79696v-167.77697h-4.79696zM243.87821,282.77697h4.79696v-167.77697h-4.79696zM253.47213,115v167.77697h4.79696v-167.77697z" data-paper-data="{&quot;isPathIcon&quot;:true}"></path></g></g></g></svg>