<svg xmlns:mydata="http://www.w3.org/2000/svg" mydata:contrastcolor="ffffff" mydata:template="Contrast" mydata:presentation="2.5" mydata:layouttype="undefined" mydata:specialfontid="undefined" mydata:id1="015" mydata:id2="066" mydata:companyname="Karine Vilhena" mydata:companytagline="Arquiteura &amp; Interiores" version="1.1" xmlns="http://www.w3.org/2000/svg" xmlns:xlink="http://www.w3.org/1999/xlink" viewBox="0 0 550 470"><g fill="none" fill-rule="nonzero" stroke="none" stroke-width="1" stroke-linecap="butt" stroke-linejoin="miter" stroke-miterlimit="10" stroke-dasharray="" stroke-dashoffset="0" font-family="none" font-weight="none" font-size="none" text-anchor="none" style="mix-blend-mode: normal"><g data-paper-data="{&quot;isGlobalGroup&quot;:true}"><g data-paper-data="{&quot;isSecondaryText&quot;:true}" fill="#101820"><path d="M68.79426,254.57577h1.70812l3.78026,9.94069h-1.98814l-0.92406,-2.47817h-3.47224l-0.91006,2.47817h-1.98814zM71.02042,260.6802l-1.3721,-3.90627l-1.4281,3.90627z" data-paper-data="{&quot;glyphName&quot;:&quot;A&quot;,&quot;glyphIndex&quot;:0,&quot;firstGlyphOfWord&quot;:true,&quot;word&quot;:1}" id="path-id-70758"></path><path d="M87.06592,264.51646v-9.94069h4.3963c0.45737,0 0.87973,0.09567 1.26709,0.28702c0.38736,0.19135 0.72105,0.44336 1.00107,0.75605c0.28002,0.31269 0.49937,0.66738 0.65805,1.06407c0.15868,0.39669 0.23802,0.79572 0.23802,1.19708c0,0.64404 -0.16101,1.22975 -0.48303,1.75712c-0.32202,0.52737 -0.75839,0.90773 -1.30909,1.14108l2.26816,3.73826h-2.17015l-2.03014,-3.33223h-1.90413v3.33223zM88.99805,259.49011h2.42217c0.17735,0 0.34302,-0.042 0.49703,-0.12601c0.15401,-0.08401 0.28702,-0.19835 0.39903,-0.34302c0.11201,-0.14468 0.20068,-0.31502 0.26602,-0.51104c0.06534,-0.19601 0.09801,-0.40603 0.09801,-0.63004c0,-0.23335 -0.03734,-0.44803 -0.11201,-0.64404c-0.07467,-0.19601 -0.17501,-0.36636 -0.30102,-0.51104c-0.12601,-0.14468 -0.27069,-0.25668 -0.43403,-0.33602c-0.16334,-0.07934 -0.32902,-0.11901 -0.49703,-0.11901h-2.33816z" data-paper-data="{&quot;glyphName&quot;:&quot;R&quot;,&quot;glyphIndex&quot;:1,&quot;word&quot;:1}" id="path-id-57914"></path><path d="M114.70416,263.87242c-0.36403,0.22402 -0.75605,0.39903 -1.17608,0.52504c-0.42003,0.12601 -0.86806,0.18901 -1.34409,0.18901c-0.72805,0 -1.38843,-0.14468 -1.98114,-0.43403c-0.59271,-0.28935 -1.10141,-0.66738 -1.52611,-1.13408c-0.4247,-0.4667 -0.75372,-1.0034 -0.98707,-1.61011c-0.23335,-0.60671 -0.35002,-1.22742 -0.35002,-1.86213c0,-0.66271 0.12368,-1.29742 0.37103,-1.90413c0.24735,-0.60671 0.58804,-1.14341 1.02207,-1.61011c0.43403,-0.4667 0.94973,-0.83772 1.54711,-1.11308c0.59737,-0.27535 1.24609,-0.41303 1.94613,-0.41303c0.71872,0 1.37443,0.14701 1.96714,0.44103c0.59271,0.29402 1.09908,0.67905 1.51911,1.15508c0.42003,0.47603 0.74672,1.0174 0.98007,1.62411c0.23335,0.60671 0.35002,1.22275 0.35002,1.84813c0,0.64404 -0.11434,1.26009 -0.34302,1.84813c-0.22868,0.58804 -0.54837,1.11074 -0.95907,1.56811l1.35809,1.52611h-1.82013zM112.19799,262.87835c0.25202,0 0.4877,-0.03034 0.70705,-0.09101c0.21935,-0.06067 0.42236,-0.14234 0.60904,-0.24502l-1.5121,-1.70812h1.82013l0.68605,0.77005c0.18668,-0.29869 0.33136,-0.62538 0.43403,-0.98007c0.10267,-0.35469 0.15401,-0.71405 0.15401,-1.07807c0,-0.42936 -0.06767,-0.84473 -0.20301,-1.24609c-0.13534,-0.40136 -0.32669,-0.75605 -0.57404,-1.06407c-0.24735,-0.30802 -0.5507,-0.55537 -0.91006,-0.74205c-0.35936,-0.18668 -0.76305,-0.28002 -1.21108,-0.28002c-0.4667,0 -0.88206,0.09567 -1.24609,0.28702c-0.36403,0.19135 -0.66738,0.4457 -0.91006,0.76305c-0.24268,0.31736 -0.42703,0.67438 -0.55304,1.07107c-0.12601,0.39669 -0.18901,0.80039 -0.18901,1.21108c0,0.42936 0.06534,0.84473 0.19601,1.24609c0.13068,0.40136 0.31969,0.75605 0.56704,1.06407c0.24735,0.30802 0.5507,0.55537 0.91006,0.74205c0.35936,0.18668 0.76772,0.28002 1.22508,0.28002z" data-paper-data="{&quot;glyphName&quot;:&quot;Q&quot;,&quot;glyphIndex&quot;:2,&quot;word&quot;:1}" id="path-id-74723"></path><path d="M134.92271,262.87835c0.45737,0 0.84239,-0.09334 1.15508,-0.28002c0.31269,-0.18668 0.56471,-0.42936 0.75605,-0.72805c0.19135,-0.29869 0.32669,-0.64171 0.40603,-1.02907c0.07934,-0.38736 0.11901,-0.78639 0.11901,-1.19708v-5.06835h1.91813v5.06835c0,0.68138 -0.08167,1.32076 -0.24502,1.91813c-0.16334,0.59737 -0.42003,1.12008 -0.77005,1.56811c-0.35002,0.44803 -0.80039,0.80272 -1.35109,1.06407c-0.5507,0.26135 -1.20875,0.39203 -1.97414,0.39203c-0.79339,0 -1.46777,-0.13768 -2.02314,-0.41303c-0.55537,-0.27535 -1.00574,-0.63938 -1.35109,-1.09208c-0.34536,-0.4527 -0.59504,-0.97773 -0.74905,-1.57511c-0.15401,-0.59737 -0.23102,-1.21808 -0.23102,-1.86213v-5.06835h1.93213v5.06835c0,0.42003 0.03967,0.82372 0.11901,1.21108c0.07934,0.38736 0.21468,0.73038 0.40603,1.02907c0.19135,0.29869 0.44103,0.53904 0.74905,0.72105c0.30802,0.18201 0.68605,0.27302 1.13408,0.27302z" data-paper-data="{&quot;glyphName&quot;:&quot;U&quot;,&quot;glyphIndex&quot;:3,&quot;word&quot;:1}" id="path-id-57876"></path><path d="M151.18825,264.51646v-9.94069h1.93213v9.94069z" data-paper-data="{&quot;glyphName&quot;:&quot;I&quot;,&quot;glyphIndex&quot;:4,&quot;word&quot;:1}" id="path-id-40437"></path><path d="M171.95213,256.26989h-3.17822v8.24657h-1.91813v-8.24657h-3.17822v-1.69412h8.27457z" data-paper-data="{&quot;glyphName&quot;:&quot;T&quot;,&quot;glyphIndex&quot;:5,&quot;word&quot;:1}" id="path-id-6883"></path><path d="M191.13302,262.82234v1.69412h-6.90248v-9.94069h6.77647v1.69412h-4.84434v2.39417h4.18629v1.56811h-4.18629v2.59018z" data-paper-data="{&quot;glyphName&quot;:&quot;E&quot;,&quot;glyphIndex&quot;:6,&quot;word&quot;:1}" id="path-id-88514"></path><path d="M208.13418,262.87835c0.45737,0 0.84239,-0.09334 1.15508,-0.28002c0.31269,-0.18668 0.56471,-0.42936 0.75605,-0.72805c0.19135,-0.29869 0.32669,-0.64171 0.40603,-1.02907c0.07934,-0.38736 0.11901,-0.78639 0.11901,-1.19708v-5.06835h1.91813v5.06835c0,0.68138 -0.08167,1.32076 -0.24502,1.91813c-0.16334,0.59737 -0.42003,1.12008 -0.77005,1.56811c-0.35002,0.44803 -0.80039,0.80272 -1.35109,1.06407c-0.5507,0.26135 -1.20875,0.39203 -1.97414,0.39203c-0.79339,0 -1.46777,-0.13768 -2.02314,-0.41303c-0.55537,-0.27535 -1.00574,-0.63938 -1.35109,-1.09208c-0.34536,-0.4527 -0.59504,-0.97773 -0.74905,-1.57511c-0.15401,-0.59737 -0.23102,-1.21808 -0.23102,-1.86213v-5.06835h1.93213v5.06835c0,0.42003 0.03967,0.82372 0.11901,1.21108c0.07934,0.38736 0.21468,0.73038 0.40603,1.02907c0.19135,0.29869 0.44103,0.53904 0.74905,0.72105c0.30802,0.18201 0.68605,0.27302 1.13408,0.27302z" data-paper-data="{&quot;glyphName&quot;:&quot;U&quot;,&quot;glyphIndex&quot;:7,&quot;word&quot;:1}" id="path-id-72691"></path><path d="M226.5137,264.51646v-9.94069h4.3963c0.45737,0 0.87973,0.09567 1.26709,0.28702c0.38736,0.19135 0.72105,0.44336 1.00107,0.75605c0.28002,0.31269 0.49937,0.66738 0.65805,1.06407c0.15868,0.39669 0.23802,0.79572 0.23802,1.19708c0,0.64404 -0.16101,1.22975 -0.48303,1.75712c-0.32202,0.52737 -0.75839,0.90773 -1.30909,1.14108l2.26816,3.73826h-2.17015l-2.03014,-3.33223h-1.90413v3.33223zM228.44584,259.49011h2.42217c0.17735,0 0.34302,-0.042 0.49703,-0.12601c0.15401,-0.08401 0.28702,-0.19835 0.39903,-0.34302c0.11201,-0.14468 0.20068,-0.31502 0.26602,-0.51104c0.06534,-0.19601 0.09801,-0.40603 0.09801,-0.63004c0,-0.23335 -0.03734,-0.44803 -0.11201,-0.64404c-0.07467,-0.19601 -0.17501,-0.36636 -0.30102,-0.51104c-0.12601,-0.14468 -0.27069,-0.25668 -0.43403,-0.33602c-0.16334,-0.07934 -0.32902,-0.11901 -0.49703,-0.11901h-2.33816z" data-paper-data="{&quot;glyphName&quot;:&quot;R&quot;,&quot;glyphIndex&quot;:8,&quot;word&quot;:1}" id="path-id-5621"></path><path d="M249.54002,254.57577h1.70812l3.78026,9.94069h-1.98814l-0.92406,-2.47817h-3.47224l-0.91006,2.47817h-1.98814zM251.76617,260.6802l-1.3721,-3.90627l-1.4281,3.90627z" data-paper-data="{&quot;glyphName&quot;:&quot;A&quot;,&quot;glyphIndex&quot;:9,&quot;lastGlyphOfWord&quot;:true,&quot;word&quot;:1}" id="path-id-97602"></path><path d="M284.3156,264.51646l-0.78405,-0.82606c-0.4107,0.31736 -0.85406,0.55771 -1.33009,0.72105c-0.47603,0.16334 -0.96607,0.24502 -1.4701,0.24502c-0.51337,0 -0.97773,-0.07934 -1.3931,-0.23802c-0.41536,-0.15868 -0.76772,-0.37336 -1.05707,-0.64404c-0.28935,-0.27069 -0.51337,-0.58571 -0.67205,-0.94507c-0.15868,-0.35936 -0.23802,-0.73505 -0.23802,-1.12708c0,-0.30802 0.04667,-0.59271 0.14001,-0.85406c0.09334,-0.26135 0.22168,-0.5017 0.38503,-0.72105c0.16334,-0.21935 0.35002,-0.42236 0.56004,-0.60904c0.21001,-0.18668 0.4317,-0.35936 0.66505,-0.51804c-0.40136,-0.44803 -0.68371,-0.83306 -0.84706,-1.15508c-0.16334,-0.32202 -0.24502,-0.66038 -0.24502,-1.01507c0,-0.35469 0.07,-0.67905 0.21001,-0.97307c0.14001,-0.29402 0.33136,-0.54604 0.57404,-0.75605c0.24268,-0.21001 0.5297,-0.37103 0.86106,-0.48303c0.33136,-0.11201 0.69305,-0.16801 1.08508,-0.16801c0.34536,0 0.67671,0.04667 0.99407,0.14001c0.31736,0.09334 0.59737,0.23102 0.84006,0.41303c0.24268,0.18201 0.4387,0.4107 0.58804,0.68605c0.14934,0.27535 0.22402,0.59504 0.22402,0.95907c0,0.54137 -0.15868,1.01507 -0.47603,1.4211c-0.31736,0.40603 -0.72338,0.78639 -1.21808,1.14108l1.90413,1.98814c0.14001,-0.29869 0.24968,-0.62538 0.32902,-0.98007c0.07934,-0.35469 0.11901,-0.73738 0.11901,-1.14808h1.52611c-0.00933,0.66271 -0.08867,1.26475 -0.23802,1.80613c-0.14934,0.54137 -0.35936,1.03607 -0.63004,1.4841l2.05814,2.15615zM280.91337,263.18637c0.57871,0 1.11541,-0.19135 1.61011,-0.57404l-2.29616,-2.42217c-0.32669,0.23335 -0.58337,0.47137 -0.77005,0.71405c-0.18668,0.24268 -0.28002,0.51337 -0.28002,0.81206c0,0.19601 0.042,0.38503 0.12601,0.56704c0.08401,0.18201 0.20301,0.33836 0.35702,0.46903c0.15401,0.13068 0.33836,0.23568 0.55304,0.31502c0.21468,0.07934 0.44803,0.11901 0.70005,0.11901zM279.73729,256.77393c0,0.08401 0.014,0.16568 0.042,0.24502c0.028,0.07934 0.07467,0.16568 0.14001,0.25902c0.06534,0.09334 0.15168,0.20068 0.25902,0.32202c0.10734,0.12134 0.24502,0.27069 0.41303,0.44803c0.35469,-0.24268 0.62538,-0.46903 0.81206,-0.67905c0.18668,-0.21001 0.28002,-0.44103 0.28002,-0.69305c0,-0.25202 -0.08634,-0.45503 -0.25902,-0.60904c-0.17268,-0.15401 -0.39436,-0.23102 -0.66505,-0.23102c-0.29869,0 -0.5437,0.09101 -0.73505,0.27302c-0.19135,0.18201 -0.28702,0.40369 -0.28702,0.66505z" data-paper-data="{&quot;glyphName&quot;:&quot;&amp;&quot;,&quot;glyphIndex&quot;:10,&quot;firstGlyphOfWord&quot;:true,&quot;lastGlyphOfWord&quot;:true,&quot;word&quot;:2}" id="path-id-27374"></path><path d="M308.02258,264.51646v-9.94069h1.93213v9.94069z" data-paper-data="{&quot;glyphName&quot;:&quot;I&quot;,&quot;glyphIndex&quot;:11,&quot;firstGlyphOfWord&quot;:true,&quot;word&quot;:3}" id="path-id-6345"></path><path d="M323.98227,258.14602v6.37044h-1.93213v-9.94069h1.4981l5.18036,6.52445v-6.51045h1.93213v9.92669h-1.56811z" data-paper-data="{&quot;glyphName&quot;:&quot;N&quot;,&quot;glyphIndex&quot;:12,&quot;word&quot;:3}" id="path-id-3381"></path><path d="M351.80525,256.26989h-3.17822v8.24657h-1.91813v-8.24657h-3.17822v-1.69412h8.27457z" data-paper-data="{&quot;glyphName&quot;:&quot;T&quot;,&quot;glyphIndex&quot;:13,&quot;word&quot;:3}" id="path-id-740"></path><path d="M370.98615,262.82234v1.69412h-6.90248v-9.94069h6.77647v1.69412h-4.84434v2.39417h4.18629v1.56811h-4.18629v2.59018z" data-paper-data="{&quot;glyphName&quot;:&quot;E&quot;,&quot;glyphIndex&quot;:14,&quot;word&quot;:3}" id="path-id-35797"></path><path d="M383.65611,264.51646v-9.94069h4.3963c0.45737,0 0.87973,0.09567 1.26709,0.28702c0.38736,0.19135 0.72105,0.44336 1.00107,0.75605c0.28002,0.31269 0.49937,0.66738 0.65805,1.06407c0.15868,0.39669 0.23802,0.79572 0.23802,1.19708c0,0.64404 -0.16101,1.22975 -0.48303,1.75712c-0.32202,0.52737 -0.75839,0.90773 -1.30909,1.14108l2.26816,3.73826h-2.17015l-2.03014,-3.33223h-1.90413v3.33223zM385.58824,259.49011h2.42217c0.17735,0 0.34302,-0.042 0.49703,-0.12601c0.15401,-0.08401 0.28702,-0.19835 0.39903,-0.34302c0.11201,-0.14468 0.20068,-0.31502 0.26602,-0.51104c0.06534,-0.19601 0.09801,-0.40603 0.09801,-0.63004c0,-0.23335 -0.03734,-0.44803 -0.11201,-0.64404c-0.07467,-0.19601 -0.17501,-0.36636 -0.30102,-0.51104c-0.12601,-0.14468 -0.27069,-0.25668 -0.43403,-0.33602c-0.16334,-0.07934 -0.32902,-0.11901 -0.49703,-0.11901h-2.33816z" data-paper-data="{&quot;glyphName&quot;:&quot;R&quot;,&quot;glyphIndex&quot;:15,&quot;word&quot;:3}" id="path-id-75792"></path><path d="M402.2385,264.51646v-9.94069h1.93213v9.94069z" data-paper-data="{&quot;glyphName&quot;:&quot;I&quot;,&quot;glyphIndex&quot;:16,&quot;word&quot;:3}" id="path-id-3692"></path><path d="M420.46957,264.58647c-0.72805,0 -1.38843,-0.14234 -1.98114,-0.42703c-0.59271,-0.28469 -1.10141,-0.66271 -1.52611,-1.13408c-0.4247,-0.47137 -0.75372,-1.0104 -0.98707,-1.61711c-0.23335,-0.60671 -0.35002,-1.22742 -0.35002,-1.86213c0,-0.66271 0.12368,-1.29742 0.37103,-1.90413c0.24735,-0.60671 0.58804,-1.14341 1.02207,-1.61011c0.43403,-0.4667 0.94973,-0.83772 1.54711,-1.11308c0.59737,-0.27535 1.24609,-0.41303 1.94613,-0.41303c0.71872,0 1.37443,0.14701 1.96714,0.44103c0.59271,0.29402 1.09908,0.67905 1.51911,1.15508c0.42003,0.47603 0.74672,1.0174 0.98007,1.62411c0.23335,0.60671 0.35002,1.22275 0.35002,1.84813c0,0.66271 -0.12134,1.29509 -0.36403,1.89713c-0.24268,0.60204 -0.57871,1.13408 -1.00807,1.59611c-0.42936,0.46203 -0.94273,0.83072 -1.54011,1.10608c-0.59737,0.27535 -1.24609,0.41303 -1.94613,0.41303zM417.58537,259.54612c0,0.42936 0.06534,0.84473 0.19601,1.24609c0.13068,0.40136 0.31969,0.75605 0.56704,1.06407c0.24735,0.30802 0.5507,0.55537 0.91006,0.74205c0.35936,0.18668 0.76772,0.28002 1.22508,0.28002c0.4667,0 0.87973,-0.09567 1.23909,-0.28702c0.35936,-0.19135 0.66271,-0.4457 0.91006,-0.76305c0.24735,-0.31736 0.43403,-0.67438 0.56004,-1.07107c0.12601,-0.39669 0.18901,-0.80039 0.18901,-1.21108c0,-0.42936 -0.06767,-0.84473 -0.20301,-1.24609c-0.13534,-0.40136 -0.32669,-0.75605 -0.57404,-1.06407c-0.24735,-0.30802 -0.5507,-0.55304 -0.91006,-0.73505c-0.35936,-0.18201 -0.76305,-0.27302 -1.21108,-0.27302c-0.4667,0 -0.88206,0.09567 -1.24609,0.28702c-0.36403,0.19135 -0.66738,0.44336 -0.91006,0.75605c-0.24268,0.31269 -0.42703,0.66738 -0.55304,1.06407c-0.12601,0.39669 -0.18901,0.80039 -0.18901,1.21108z" data-paper-data="{&quot;glyphName&quot;:&quot;O&quot;,&quot;glyphIndex&quot;:17,&quot;word&quot;:3}" id="path-id-3938"></path><path d="M438.92018,264.51646v-9.94069h4.3963c0.45737,0 0.87973,0.09567 1.26709,0.28702c0.38736,0.19135 0.72105,0.44336 1.00107,0.75605c0.28002,0.31269 0.49937,0.66738 0.65805,1.06407c0.15868,0.39669 0.23802,0.79572 0.23802,1.19708c0,0.64404 -0.16101,1.22975 -0.48303,1.75712c-0.32202,0.52737 -0.75839,0.90773 -1.30909,1.14108l2.26816,3.73826h-2.17015l-2.03014,-3.33223h-1.90413v3.33223zM440.85232,259.49011h2.42217c0.17735,0 0.34302,-0.042 0.49703,-0.12601c0.15401,-0.08401 0.28702,-0.19835 0.39903,-0.34302c0.11201,-0.14468 0.20068,-0.31502 0.26602,-0.51104c0.06534,-0.19601 0.09801,-0.40603 0.09801,-0.63004c0,-0.23335 -0.03734,-0.44803 -0.11201,-0.64404c-0.07467,-0.19601 -0.17501,-0.36636 -0.30102,-0.51104c-0.12601,-0.14468 -0.27069,-0.25668 -0.43403,-0.33602c-0.16334,-0.07934 -0.32902,-0.11901 -0.49703,-0.11901h-2.33816z" data-paper-data="{&quot;glyphName&quot;:&quot;R&quot;,&quot;glyphIndex&quot;:18,&quot;word&quot;:3}" id="path-id-62415"></path><path d="M466.12631,262.82234v1.69412h-6.90248v-9.94069h6.77647v1.69412h-4.84434v2.39417h4.18629v1.56811h-4.18629v2.59018z" data-paper-data="{&quot;glyphName&quot;:&quot;E&quot;,&quot;glyphIndex&quot;:19,&quot;word&quot;:3}" id="path-id-90396"></path><path d="M483.79592,257.17995c-0.06534,-0.06534 -0.18435,-0.15401 -0.35702,-0.26602c-0.17268,-0.11201 -0.38269,-0.22168 -0.63004,-0.32902c-0.24735,-0.10734 -0.5157,-0.19835 -0.80506,-0.27302c-0.28935,-0.07467 -0.58337,-0.11201 -0.88206,-0.11201c-0.53204,0 -0.92873,0.09801 -1.19008,0.29402c-0.26135,0.19601 -0.39203,0.47137 -0.39203,0.82606c0,0.20535 0.049,0.37569 0.14701,0.51104c0.09801,0.13534 0.24035,0.25435 0.42703,0.35702c0.18668,0.10267 0.42236,0.19601 0.70705,0.28002c0.28469,0.08401 0.61371,0.17268 0.98707,0.26602c0.48537,0.13068 0.9264,0.27069 1.32309,0.42003c0.39669,0.14934 0.73272,0.33602 1.00807,0.56004c0.27535,0.22402 0.4877,0.49237 0.63704,0.80506c0.14934,0.31269 0.22402,0.69772 0.22402,1.15508c0,0.53204 -0.10034,0.98707 -0.30102,1.36509c-0.20068,0.37803 -0.47137,0.68371 -0.81206,0.91706c-0.34069,0.23335 -0.73272,0.40369 -1.17608,0.51104c-0.44336,0.10734 -0.90773,0.16101 -1.3931,0.16101c-0.74672,0 -1.4841,-0.11201 -2.21215,-0.33602c-0.72805,-0.22402 -1.38143,-0.54137 -1.96014,-0.95207l0.85406,-1.66612c0.08401,0.08401 0.23568,0.19368 0.45503,0.32902c0.21935,0.13534 0.47837,0.27069 0.77705,0.40603c0.29869,0.13534 0.63004,0.24968 0.99407,0.34302c0.36403,0.09334 0.73738,0.14001 1.12008,0.14001c1.06407,0 1.59611,-0.34069 1.59611,-1.02207c0,-0.21468 -0.06067,-0.39669 -0.18201,-0.54604c-0.12134,-0.14934 -0.29402,-0.28002 -0.51804,-0.39203c-0.22402,-0.11201 -0.4947,-0.21468 -0.81206,-0.30802c-0.31736,-0.09334 -0.67205,-0.19601 -1.06407,-0.30802c-0.47603,-0.13068 -0.88906,-0.27302 -1.23909,-0.42703c-0.35002,-0.15401 -0.64171,-0.33602 -0.87506,-0.54604c-0.23335,-0.21001 -0.40836,-0.4527 -0.52504,-0.72805c-0.11667,-0.27535 -0.17501,-0.60438 -0.17501,-0.98707c0,-0.50403 0.09334,-0.95207 0.28002,-1.34409c0.18668,-0.39203 0.4457,-0.71872 0.77705,-0.98007c0.33136,-0.26135 0.71638,-0.4597 1.15508,-0.59504c0.4387,-0.13534 0.91006,-0.20301 1.4141,-0.20301c0.70005,0 1.34409,0.10967 1.93213,0.32902c0.58804,0.21935 1.10141,0.47837 1.54011,0.77705z" data-paper-data="{&quot;glyphName&quot;:&quot;S&quot;,&quot;glyphIndex&quot;:20,&quot;lastGlyphOfWord&quot;:true,&quot;word&quot;:3}" id="path-id-94486"></path></g><g data-paper-data="{&quot;isPrimaryText&quot;:true}"><path d="M73.57143,220.30549h1.3694c1.26796,0 2.1809,-0.3973 2.7388,-1.19189l8.31784,-12.07101c0.45647,-0.65934 0.97633,-1.10735 1.55959,-1.34404c0.58326,-0.23669 1.29755,-0.35503 2.14286,-0.35503h7.45562l-10.9552,14.9366c-0.38884,0.541 -0.79459,0.98901 -1.21724,1.34404c-0.42265,0.35503 -0.85376,0.65089 -1.29332,0.88757c0.64243,0.23669 1.22992,0.56213 1.76247,0.97633c0.53254,0.4142 1.0186,0.96788 1.45816,1.66103l11.15807,17.14286h-7.6585c-0.49028,0 -0.90871,-0.03381 -1.25528,-0.10144c-0.34658,-0.06762 -0.64666,-0.16906 -0.90025,-0.30431c-0.25359,-0.13525 -0.47337,-0.30008 -0.65934,-0.49451c-0.18597,-0.19442 -0.36348,-0.41843 -0.53254,-0.67202l-8.36855,-12.85714c-0.30431,-0.47337 -0.68893,-0.80727 -1.15385,-1.00169c-0.46492,-0.19442 -1.09467,-0.29163 -1.88926,-0.29163h-2.07946v15.72274h-8.57143v-36.94844h8.57143z" data-paper-data="{&quot;glyphName&quot;:&quot;K&quot;,&quot;glyphIndex&quot;:0,&quot;firstGlyphOfWord&quot;:true,&quot;word&quot;:1}" fill="#85714d" id="path-id-96540" data-original-fill="#85714d"></path><path d="M135.60017,242.29196h-6.64413c-0.74387,0 -1.35672,-0.17329 -1.83855,-0.51986c-0.48183,-0.34658 -0.81572,-0.79036 -1.00169,-1.33136l-2.1809,-6.44125h-14.04903l-2.1809,6.44125c-0.16906,0.47337 -0.49873,0.90025 -0.98901,1.28064c-0.49028,0.38039 -1.09045,0.57058 -1.80051,0.57058h-6.69484l14.30262,-36.94844h8.7743zM111.86391,228.16686h10.09298l-3.39814,-10.11834c-0.21978,-0.64243 -0.4776,-1.39899 -0.77346,-2.26965c-0.29586,-0.87067 -0.58749,-1.81319 -0.87489,-2.82756c-0.2705,1.03128 -0.54945,1.98648 -0.83686,2.8656c-0.2874,0.87912 -0.5579,1.6399 -0.8115,2.28233z" data-paper-data="{&quot;glyphName&quot;:&quot;A&quot;,&quot;glyphIndex&quot;:1,&quot;word&quot;:1}" fill="#85714d" id="path-id-80594" data-original-fill="#85714d"></path><path d="M147.16399,228.62333v13.66864h-8.57143v-36.94844h12.02029c2.67117,0 4.94928,0.27473 6.83432,0.82418c1.88504,0.54945 3.4235,1.31445 4.61538,2.29501c1.19189,0.98056 2.05833,2.13863 2.59932,3.47422c0.541,1.33559 0.8115,2.78952 0.8115,4.36179c0,1.20034 -0.16061,2.33305 -0.48183,3.39814c-0.32122,1.06509 -0.79882,2.04987 -1.4328,2.95435c-0.63398,0.90448 -1.41167,1.71175 -2.33305,2.42181c-0.92139,0.71006 -1.98225,1.29332 -3.18259,1.74979c0.57481,0.2874 1.11158,0.64243 1.61031,1.06509c0.49873,0.42265 0.93407,0.93829 1.306,1.54691l7.86137,12.85714h-7.75993c-1.43702,0 -2.4683,-0.541 -3.09383,-1.62299l-6.13694,-10.72697c-0.2705,-0.47337 -0.58749,-0.8115 -0.95097,-1.01437c-0.36348,-0.20287 -0.87489,-0.30431 -1.53423,-0.30431zM147.16399,222.71462h3.44886c1.16653,0 2.15976,-0.14793 2.97971,-0.44379c0.81995,-0.29586 1.49197,-0.70583 2.01606,-1.22992c0.52409,-0.52409 0.90448,-1.13694 1.14117,-1.83855c0.23669,-0.70161 0.35503,-1.45816 0.35503,-2.26965c0,-1.62299 -0.52832,-2.89096 -1.58495,-3.80389c-1.05664,-0.91293 -2.69231,-1.3694 -4.90702,-1.3694h-3.44886z" data-paper-data="{&quot;glyphName&quot;:&quot;R&quot;,&quot;glyphIndex&quot;:2,&quot;word&quot;:1}" fill="#85714d" id="path-id-13102" data-original-fill="#85714d"></path><path d="M181.7033,242.29196h-8.62215v-36.94844h8.62215z" data-paper-data="{&quot;glyphName&quot;:&quot;I&quot;,&quot;glyphIndex&quot;:3,&quot;word&quot;:1}" fill="#85714d" id="path-id-20558" data-original-fill="#85714d"></path><path d="M193.06424,205.34353c0.37194,0 0.6847,0.01691 0.93829,0.05072c0.25359,0.03381 0.48183,0.09721 0.6847,0.19019c0.20287,0.09298 0.3973,0.22401 0.58326,0.39307c0.18597,0.16906 0.3973,0.3973 0.63398,0.6847l17.54861,22.18935c-0.06762,-0.71006 -0.11834,-1.39899 -0.15216,-2.06678c-0.03381,-0.66779 -0.05072,-1.29755 -0.05072,-1.88926v-19.55199h7.55706v36.94844h-4.46323c-0.65934,0 -1.21724,-0.10144 -1.67371,-0.30431c-0.45647,-0.20287 -0.89603,-0.57481 -1.31868,-1.11581l-17.42181,-22.01183c0.05072,0.64243 0.09298,1.27219 0.1268,1.88926c0.03381,0.61708 0.05072,1.19611 0.05072,1.73711v19.80558h-7.55706v-36.94844z" data-paper-data="{&quot;glyphName&quot;:&quot;N&quot;,&quot;glyphIndex&quot;:4,&quot;word&quot;:1}" fill="#85714d" id="path-id-18427" data-original-fill="#85714d"></path><path d="M250.68047,205.34353v6.59341h-15.16484v8.62215h11.61454v6.33981h-11.61454v8.79966h15.16484v6.59341h-23.78698v-36.94844z" data-paper-data="{&quot;glyphName&quot;:&quot;E&quot;,&quot;glyphIndex&quot;:5,&quot;lastGlyphOfWord&quot;:true,&quot;word&quot;:1}" fill="#85714d" id="path-id-69151" data-original-fill="#85714d"></path><path d="M262.29501,205.34353h6.89772c0.74387,0 1.35249,0.16906 1.82587,0.50719c0.47337,0.33812 0.8115,0.78614 1.01437,1.34404l7.15131,19.78022c0.32122,0.86221 0.64666,1.80051 0.97633,2.81488c0.32967,1.01437 0.63821,2.07946 0.92561,3.19527c0.23669,-1.11581 0.51141,-2.1809 0.82418,-3.19527c0.31276,-1.01437 0.6213,-1.95266 0.92561,-2.81488l7.10059,-19.78022c0.16906,-0.47337 0.49873,-0.90025 0.98901,-1.28064c0.49028,-0.38039 1.09045,-0.57058 1.80051,-0.57058h6.94844l-14.80981,36.94844h-7.75993z" data-paper-data="{&quot;glyphName&quot;:&quot;V&quot;,&quot;glyphIndex&quot;:6,&quot;firstGlyphOfWord&quot;:true,&quot;word&quot;:2}" fill="#101820" id="path-id-59020" data-original-fill="#101820"></path><path d="M312.10059,242.29196h-8.62215v-36.94844h8.62215z" data-paper-data="{&quot;glyphName&quot;:&quot;I&quot;,&quot;glyphIndex&quot;:7,&quot;word&quot;:2}" fill="#101820" id="path-id-57851" data-original-fill="#101820"></path><path d="M327.51902,235.44497h13.694v6.847h-22.26543v-36.94844h8.57143z" data-paper-data="{&quot;glyphName&quot;:&quot;L&quot;,&quot;glyphIndex&quot;:8,&quot;word&quot;:2}" fill="#101820" id="path-id-94559" data-original-fill="#101820"></path><path d="M377.52747,242.29196h-8.62215v-15.6213h-15.01268v15.6213h-8.62215v-36.94844h8.62215v15.44379h15.01268v-15.44379h8.62215z" data-paper-data="{&quot;glyphName&quot;:&quot;H&quot;,&quot;glyphIndex&quot;:9,&quot;word&quot;:2}" fill="#101820" id="path-id-11689" data-original-fill="#101820"></path><path d="M407.40068,205.34353v6.59341h-15.16484v8.62215h11.61454v6.33981h-11.61454v8.79966h15.16484v6.59341h-23.78698v-36.94844z" data-paper-data="{&quot;glyphName&quot;:&quot;E&quot;,&quot;glyphIndex&quot;:10,&quot;word&quot;:2}" fill="#101820" id="path-id-82142" data-original-fill="#101820"></path><path d="M416.7836,205.34353c0.37194,0 0.6847,0.01691 0.93829,0.05072c0.25359,0.03381 0.48183,0.09721 0.6847,0.19019c0.20287,0.09298 0.3973,0.22401 0.58326,0.39307c0.18597,0.16906 0.3973,0.3973 0.63398,0.6847l17.54861,22.18935c-0.06762,-0.71006 -0.11834,-1.39899 -0.15216,-2.06678c-0.03381,-0.66779 -0.05072,-1.29755 -0.05072,-1.88926v-19.55199h7.55706v36.94844h-4.46323c-0.65934,0 -1.21724,-0.10144 -1.67371,-0.30431c-0.45647,-0.20287 -0.89603,-0.57481 -1.31868,-1.11581l-17.42181,-22.01183c0.05072,0.64243 0.09298,1.27219 0.1268,1.88926c0.03381,0.61708 0.05072,1.19611 0.05072,1.73711v19.80558h-7.55706v-36.94844z" data-paper-data="{&quot;glyphName&quot;:&quot;N&quot;,&quot;glyphIndex&quot;:11,&quot;word&quot;:2}" fill="#101820" id="path-id-8744" data-original-fill="#101820"></path><path d="M485,242.29196h-6.64413c-0.74387,0 -1.35672,-0.17329 -1.83855,-0.51986c-0.48183,-0.34658 -0.81572,-0.79036 -1.00169,-1.33136l-2.1809,-6.44125h-14.04903l-2.1809,6.44125c-0.16906,0.47337 -0.49873,0.90025 -0.98901,1.28064c-0.49028,0.38039 -1.09045,0.57058 -1.80051,0.57058h-6.69484l14.30262,-36.94844h8.7743zM461.26374,228.16686h10.09298l-3.39814,-10.11834c-0.21978,-0.64243 -0.4776,-1.39899 -0.77346,-2.26965c-0.29586,-0.87067 -0.58749,-1.81319 -0.87489,-2.82756c-0.2705,1.03128 -0.54945,1.98648 -0.83686,2.8656c-0.2874,0.87912 -0.5579,1.6399 -0.8115,2.28233z" data-paper-data="{&quot;glyphName&quot;:&quot;A&quot;,&quot;glyphIndex&quot;:12,&quot;lastGlyphOfWord&quot;:true,&quot;word&quot;:2}" fill="#101820" id="path-id-33677" data-original-fill="#101820"></path></g></g></g><rect data-path-id="path-id-80594" class="invisible-bbox" x="98" y="205" fill="transparent" width="37" height="37"></rect><rect data-path-id="path-id-59020" class="invisible-bbox" x="262" y="205" fill="transparent" width="37" height="37"></rect><rect data-path-id="path-id-33677" class="invisible-bbox" x="448" y="205" fill="transparent" width="37" height="37"></rect><rect data-path-id="path-id-96540" class="invisible-bbox" x="65" y="205" fill="transparent" width="33" height="37"></rect><rect data-path-id="path-id-18427" class="invisible-bbox" x="189" y="205" fill="transparent" width="32" height="37"></rect><rect data-path-id="path-id-11689" class="invisible-bbox" x="345" y="205" fill="transparent" width="32" height="37"></rect><rect data-path-id="path-id-8744" class="invisible-bbox" x="412" y="205" fill="transparent" width="32" height="37"></rect><rect data-path-id="path-id-13102" class="invisible-bbox" x="139" y="205" fill="transparent" width="30" height="37"></rect><rect data-path-id="path-id-69151" class="invisible-bbox" x="227" y="205" fill="transparent" width="24" height="37"></rect><rect data-path-id="path-id-82142" class="invisible-bbox" x="384" y="205" fill="transparent" width="24" height="37"></rect><rect data-path-id="path-id-94559" class="invisible-bbox" x="319" y="205" fill="transparent" width="22" height="37"></rect><rect data-path-id="path-id-20558" class="invisible-bbox" x="173" y="205" fill="transparent" width="9" height="37"></rect><rect data-path-id="path-id-57851" class="invisible-bbox" x="303" y="205" fill="transparent" width="9" height="37"></rect><rect data-path-id="path-id-74723" class="invisible-bbox" x="107" y="255" fill="transparent" width="10" height="10"></rect><rect data-path-id="path-id-3938" class="invisible-bbox" x="416" y="255" fill="transparent" width="10" height="10"></rect><rect data-path-id="path-id-70758" class="invisible-bbox" x="65" y="255" fill="transparent" width="9" height="10"></rect><rect data-path-id="path-id-57876" class="invisible-bbox" x="131" y="255" fill="transparent" width="9" height="10"></rect><rect data-path-id="path-id-72691" class="invisible-bbox" x="204" y="255" fill="transparent" width="9" height="10"></rect><rect data-path-id="path-id-97602" class="invisible-bbox" x="246" y="255" fill="transparent" width="9" height="10"></rect><rect data-path-id="path-id-27374" class="invisible-bbox" x="277" y="254" fill="transparent" width="9" height="10"></rect><rect data-path-id="path-id-3381" class="invisible-bbox" x="322" y="255" fill="transparent" width="9" height="10"></rect><rect data-path-id="path-id-57914" class="invisible-bbox" x="87" y="255" fill="transparent" width="8" height="10"></rect><rect data-path-id="path-id-6883" class="invisible-bbox" x="164" y="255" fill="transparent" width="8" height="10"></rect><rect data-path-id="path-id-5621" class="invisible-bbox" x="227" y="255" fill="transparent" width="8" height="10"></rect><rect data-path-id="path-id-740" class="invisible-bbox" x="344" y="255" fill="transparent" width="8" height="10"></rect><rect data-path-id="path-id-75792" class="invisible-bbox" x="384" y="255" fill="transparent" width="8" height="10"></rect><rect data-path-id="path-id-62415" class="invisible-bbox" x="439" y="255" fill="transparent" width="8" height="10"></rect><rect data-path-id="path-id-94486" class="invisible-bbox" x="477" y="255" fill="transparent" width="8" height="10"></rect><rect data-path-id="path-id-88514" class="invisible-bbox" x="184" y="255" fill="transparent" width="7" height="10"></rect><rect data-path-id="path-id-35797" class="invisible-bbox" x="364" y="255" fill="transparent" width="7" height="10"></rect><rect data-path-id="path-id-90396" class="invisible-bbox" x="459" y="255" fill="transparent" width="7" height="10"></rect><rect data-path-id="path-id-40437" class="invisible-bbox" x="151" y="255" fill="transparent" width="2" height="10"></rect><rect data-path-id="path-id-6345" class="invisible-bbox" x="308" y="255" fill="transparent" width="2" height="10"></rect><rect data-path-id="path-id-3692" class="invisible-bbox" x="402" y="255" fill="transparent" width="2" height="10"></rect></svg>