<svg xmlns:mydata="http://www.w3.org/2000/svg" mydata:contrastcolor="003A70" mydata:template="BlackAndHighlightColorHex2" mydata:presentation="2.5" mydata:layouttype="undefined" mydata:specialfontid="undefined" mydata:id1="769" mydata:id2="030" mydata:companyname="Karine Vilhena" mydata:companytagline="Arquiteura" version="1.1" xmlns="http://www.w3.org/2000/svg" xmlns:xlink="http://www.w3.org/1999/xlink" viewBox="0 0 550 470"><g fill="none" fill-rule="none" stroke="none" stroke-width="1" stroke-linecap="butt" stroke-linejoin="miter" stroke-miterlimit="10" stroke-dasharray="" stroke-dashoffset="0" font-family="none" font-weight="none" font-size="none" text-anchor="none" style="mix-blend-mode: normal"><g data-paper-data="{&quot;isGlobalGroup&quot;:true}"><g data-paper-data="{&quot;isSecondaryText&quot;:true}" fill="#c7c9c7" fill-rule="nonzero"><path d="M138.59895,262.55247l-0.55668,-2.11847h-3.67254l-0.57214,2.11847h-3.35554l3.688,-11.35007h4.07458l3.73439,11.35007zM137.40828,257.92894l-0.48709,-1.8556c-0.1134,-0.41236 -0.25128,-0.94584 -0.41364,-1.60045c-0.16236,-0.65461 -0.26932,-1.12367 -0.32086,-1.40716c-0.04639,0.26288 -0.13788,0.69585 -0.27447,1.29892c-0.13659,0.60307 -0.43942,1.79117 -0.90847,3.56429z" data-paper-data="{&quot;glyphName&quot;:&quot;A&quot;,&quot;glyphIndex&quot;:0,&quot;firstGlyphOfWord&quot;:true,&quot;word&quot;:1}"></path><path d="M168.57707,258.43923v4.11324h-3.05401v-11.30368h3.70346c3.07205,0 4.60807,1.11336 4.60807,3.34008c0,1.30923 -0.63915,2.32207 -1.91745,3.03854l3.29369,4.92507h-3.46378l-2.39681,-4.11324zM168.57707,256.14292h0.57214c1.06697,0 1.60045,-0.47163 1.60045,-1.41489c0,-0.77832 -0.52318,-1.16748 -1.56953,-1.16748h-0.60307z" data-paper-data="{&quot;glyphName&quot;:&quot;R&quot;,&quot;glyphIndex&quot;:1,&quot;word&quot;:1}"></path><path d="M208.29097,256.88516c0,2.56176 -0.8144,4.28849 -2.4432,5.18021l2.7602,3.17771h-3.80398l-1.99477,-2.51279l-0.00773,-0.00773v-0.00773l-0.00773,-0.00773c-1.77313,0 -3.13261,-0.4974 -4.07845,-1.49221c-0.94584,-0.99481 -1.41876,-2.4432 -1.41876,-4.34519c0,-1.88137 0.47034,-3.31817 1.41103,-4.3104c0.94069,-0.99223 2.3079,-1.48834 4.10164,-1.48834c1.7989,0 3.16225,0.49225 4.09005,1.47675c0.9278,0.9845 1.3917,2.43032 1.3917,4.33746zM200.51292,256.88516c0,2.18548 0.76028,3.27822 2.28084,3.27822c0.77317,0 1.3466,-0.26545 1.72029,-0.79636c0.3737,-0.53091 0.56055,-1.35819 0.56055,-2.48186c0,-1.12882 -0.18943,-1.96255 -0.56828,-2.50119c-0.37885,-0.53864 -0.94455,-0.80796 -1.6971,-0.80796c-1.53087,0 -2.2963,1.10305 -2.2963,3.30915z" data-paper-data="{&quot;glyphName&quot;:&quot;Q&quot;,&quot;glyphIndex&quot;:2,&quot;word&quot;:1}"></path><path d="M242.73414,251.24878v6.80386c0,1.47932 -0.4188,2.6249 -1.25639,3.43672c-0.8376,0.81182 -2.04502,1.21774 -3.62228,1.21774c-1.54118,0 -2.72541,-0.39431 -3.5527,-1.18294c-0.82729,-0.78863 -1.24093,-1.92261 -1.24093,-3.40193v-6.87344h3.06947v6.63376c0,0.79894 0.14948,1.37881 0.44844,1.73962c0.29896,0.36081 0.73966,0.54122 1.32211,0.54122c0.62369,0 1.07599,-0.17912 1.35691,-0.53735c0.28092,-0.35823 0.42138,-0.94455 0.42138,-1.75895v-6.6183z" data-paper-data="{&quot;glyphName&quot;:&quot;U&quot;,&quot;glyphIndex&quot;:3,&quot;word&quot;:1}"></path><path d="M263.5983,262.55247v-11.30368h3.06947v11.30368z" data-paper-data="{&quot;glyphName&quot;:&quot;I&quot;,&quot;glyphIndex&quot;:4,&quot;word&quot;:1}"></path><path d="M290.93533,262.55247h-3.05401v-8.80636h-2.7602v-2.49733h8.56668v2.49733h-2.75247z" data-paper-data="{&quot;glyphName&quot;:&quot;T&quot;,&quot;glyphIndex&quot;:5,&quot;word&quot;:1}"></path><path d="M321.14903,262.55247h-6.71108v-11.30368h6.71108v2.45094h-3.65707v1.77828h3.38647v2.45094h-3.38647v2.13394h3.65707z" data-paper-data="{&quot;glyphName&quot;:&quot;E&quot;,&quot;glyphIndex&quot;:6,&quot;word&quot;:1}"></path><path d="M352.95072,251.24878v6.80386c0,1.47932 -0.4188,2.6249 -1.25639,3.43672c-0.8376,0.81182 -2.04502,1.21774 -3.62228,1.21774c-1.54118,0 -2.72541,-0.39431 -3.5527,-1.18294c-0.82729,-0.78863 -1.24093,-1.92261 -1.24093,-3.40193v-6.87344h3.06947v6.63376c0,0.79894 0.14948,1.37881 0.44844,1.73962c0.29896,0.36081 0.73966,0.54122 1.32211,0.54122c0.62369,0 1.07599,-0.17912 1.35691,-0.53735c0.28092,-0.35823 0.42138,-0.94455 0.42138,-1.75895v-6.6183z" data-paper-data="{&quot;glyphName&quot;:&quot;U&quot;,&quot;glyphIndex&quot;:7,&quot;word&quot;:1}"></path><path d="M381.04311,258.43923v4.11324h-3.05401v-11.30368h3.70346c3.07205,0 4.60807,1.11336 4.60807,3.34008c0,1.30923 -0.63915,2.32207 -1.91745,3.03854l3.29369,4.92507h-3.46378l-2.39681,-4.11324zM381.04311,256.14292h0.57214c1.06697,0 1.60045,-0.47163 1.60045,-1.41489c0,-0.77832 -0.52318,-1.16748 -1.56953,-1.16748h-0.60307z" data-paper-data="{&quot;glyphName&quot;:&quot;R&quot;,&quot;glyphIndex&quot;:8,&quot;word&quot;:1}"></path><path d="M416.21814,262.55247l-0.55668,-2.11847h-3.67254l-0.57214,2.11847h-3.35554l3.688,-11.35007h4.07458l3.73439,11.35007zM415.02747,257.92894l-0.48709,-1.8556c-0.1134,-0.41236 -0.25128,-0.94584 -0.41364,-1.60045c-0.16236,-0.65461 -0.26932,-1.12367 -0.32086,-1.40716c-0.04639,0.26288 -0.13788,0.69585 -0.27447,1.29892c-0.13659,0.60307 -0.43942,1.79117 -0.90847,3.56429z" data-paper-data="{&quot;glyphName&quot;:&quot;A&quot;,&quot;glyphIndex&quot;:9,&quot;lastGlyphOfWord&quot;:true,&quot;word&quot;:1}"></path></g><g data-paper-data="{&quot;isPrimaryText&quot;:true}" fill-rule="nonzero"><path d="M85.69669,239.00103h8.02458c0.01225,0 0.02393,-0.00627 0.0302,-0.01681l6.51338,-10.53108l6.51253,10.53108c0.00627,0.01054 0.01795,0.01681 0.0302,0.01681h8.02173c0.01282,0 0.02478,-0.00712 0.03105,-0.01823c0.00598,-0.01139 0.00598,-0.02507 -0.00086,-0.03589l-10.54248,-17.0476l10.54248,-17.05016c0.00655,-0.01111 0.00684,-0.02478 0.00085,-0.03589c-0.00627,-0.01139 -0.01823,-0.01823 -0.03105,-0.01823h-8.02173c-0.01225,0 -0.02393,0.00627 -0.0302,0.01681l-6.54101,10.57865c-0.00057,0.00057 -0.00171,0.00029 -0.00228,0.00114l-4.01086,6.48917l-3.6659,5.92685v-22.9773c0,-0.01966 -0.01595,-0.03561 -0.03561,-0.03561h-6.82531c-0.01966,0 -0.03561,0.01595 -0.03561,0.03561v34.13508c0.00029,0.01966 0.01624,0.03561 0.03589,0.03561z" data-paper-data="{&quot;glyphName&quot;:&quot;K&quot;,&quot;glyphIndex&quot;:0,&quot;firstGlyphOfWord&quot;:true,&quot;word&quot;:1}" fill="#ffffff"></path><path d="M122.92843,227.49847h7.40073c0.01139,0 0.02222,-0.00541 0.02877,-0.01453c0.00655,-0.00912 0.00855,-0.02108 0.00513,-0.0319l-3.70036,-11.4999c-0.0094,-0.02963 -0.0584,-0.02963 -0.0678,0l-3.70036,11.4999c-0.00342,0.01082 -0.00142,0.02279 0.00513,0.03191c0.00655,0.00912 0.01738,0.01453 0.02877,0.01453zM132.52545,234.25541h-11.79331c-0.01538,0 -0.02934,0.00997 -0.0339,0.02478l-1.50407,4.67175c-0.00342,0.01082 -0.00142,0.02279 0.00513,0.03191c0.00655,0.00912 0.01738,0.01453 0.02877,0.01453h14.80146c0.01139,0 0.02222,-0.00541 0.02877,-0.01453c0.00655,-0.00912 0.00855,-0.02108 0.00513,-0.0319l-1.50407,-4.67175c-0.00456,-0.01481 -0.01823,-0.02478 -0.0339,-0.02478zM164.39445,229.28968c3.74138,-2.48286 5.97471,-6.64157 5.97471,-11.13328c0,-7.36911 -5.99522,-13.36433 -13.36433,-13.36433h-26.79132c-0.01139,0 -0.02222,0.00541 -0.02877,0.01453c-0.00655,0.00912 -0.00855,0.02108 -0.00513,0.0319l10.9843,34.13508c0.00057,0.00171 0.00342,0.00142 0.00399,0.00285c0.0057,0.01196 0.01567,0.02165 0.02991,0.02165h6.82531c0.01966,0 0.03561,-0.01595 0.03561,-0.03561v-7.44175h8.94611c0.21849,0 0.43755,-0.00598 0.65291,-0.01652l4.62389,7.47736c0.00655,0.01054 0.01795,0.01681 0.03019,0.01681h8.02173c0.01282,0 0.02478,-0.00684 0.03105,-0.01823c0.00627,-0.01139 0.00598,-0.02507 -0.00085,-0.03618zM160.73311,223.44003c-1.08874,0.77454 -2.37803,1.18417 -3.72828,1.18417h-8.94611v-12.93561h8.94611c3.56648,0 6.4678,2.90161 6.4678,6.4678c0.00029,2.09744 -1.02408,4.07239 -2.73952,5.28363z" data-paper-data="{&quot;glyphName&quot;:&quot;&quot;,&quot;glyphIndex&quot;:1,&quot;word&quot;:1}" fill="#ffffff"></path><path d="M174.72623,239.00018h6.82445c0.01966,0 0.03561,-0.01595 0.03561,-0.03561v-34.13508c0,-0.01966 -0.01595,-0.03561 -0.03561,-0.03561h-6.82445c-0.01966,0 -0.03561,0.01595 -0.03561,0.03561v34.13508c0,0.01966 0.01595,0.03561 0.03561,0.03561z" data-paper-data="{&quot;glyphName&quot;:&quot;I&quot;,&quot;glyphIndex&quot;:2,&quot;word&quot;:1}" fill="#ffffff"></path><path d="M185.94954,239.00103h6.82246c0.01966,0 0.03561,-0.01595 0.03561,-0.03561v-22.97701l14.2229,22.99581c0.00627,0.01054 0.01795,0.01681 0.0302,0.01681h8.02458c0.01966,0 0.03561,-0.01595 0.03561,-0.03561v-34.13508c0,-0.01966 -0.01595,-0.03561 -0.03561,-0.03561h-6.82531c-0.01966,0 -0.03561,0.01595 -0.03561,0.03561v22.97701l-14.21977,-22.99581c-0.00627,-0.01054 -0.01795,-0.01681 -0.0302,-0.01681h-8.02486c-0.01966,0 -0.03561,0.01595 -0.03561,0.03561v34.13508c0,0.01966 0.01595,0.03561 0.03561,0.03561z" data-paper-data="{&quot;glyphName&quot;:&quot;N&quot;,&quot;glyphIndex&quot;:3,&quot;word&quot;:1}" fill="#ffffff"></path><path d="M219.48115,239.00018h29.13659c0.01966,0 0.03561,-0.01595 0.03561,-0.03561v-6.82702c0,-0.01966 -0.01595,-0.03561 -0.03561,-0.03561h-22.27369v-6.7558h15.44923c0.01966,0 0.03561,-0.01595 0.03561,-0.03561v-6.82702c0,-0.01966 -0.01595,-0.03561 -0.03561,-0.03561h-15.44923v-6.7558h22.27369c0.01966,0 0.03561,-0.01595 0.03561,-0.03561v-6.82702c0,-0.01966 -0.01595,-0.03561 -0.03561,-0.03561h-29.13659c-0.01966,0 -0.03561,0.01595 -0.03561,0.03561v34.13508c0,0.01966 0.01595,0.03561 0.03561,0.03561z" data-paper-data="{&quot;glyphName&quot;:&quot;E&quot;,&quot;glyphIndex&quot;:4,&quot;lastGlyphOfWord&quot;:true,&quot;word&quot;:1}" fill="#ffffff"></path><path d="M278.83274,239.00103h7.16714c0.01567,0 0.02934,-0.00997 0.0339,-0.02478l10.9843,-34.13508c0.00342,-0.01082 0.00171,-0.02279 -0.00541,-0.03191c-0.00655,-0.00912 -0.01738,-0.01453 -0.02877,-0.01453h-7.16714c-0.01567,0 -0.02934,0.00997 -0.0339,0.02478l-7.36654,22.8944l-7.36683,-22.8944c-0.00484,-0.01481 -0.01823,-0.02478 -0.0339,-0.02478h-7.16714c-0.01139,0 -0.02193,0.00541 -0.02877,0.01453c-0.00684,0.00912 -0.00855,0.02108 -0.00541,0.0319l10.98458,34.13508c0.00456,0.01481 0.01823,0.02478 0.0339,0.02478z" data-paper-data="{&quot;glyphName&quot;:&quot;V&quot;,&quot;glyphIndex&quot;:5,&quot;firstGlyphOfWord&quot;:true,&quot;word&quot;:2}" fill="#c7c9c7"></path><path d="M301.37996,239.00018h6.82445c0.01966,0 0.03561,-0.01595 0.03561,-0.03561v-34.13508c0,-0.01966 -0.01595,-0.03561 -0.03561,-0.03561h-6.82445c-0.01966,0 -0.03561,0.01595 -0.03561,0.03561v34.13508c0,0.01966 0.01595,0.03561 0.03561,0.03561z" data-paper-data="{&quot;glyphName&quot;:&quot;I&quot;,&quot;glyphIndex&quot;:6,&quot;word&quot;:2}" fill="#c7c9c7"></path><path d="M312.60327,239.00018h29.13602c0.01966,0 0.03561,-0.01595 0.03561,-0.03561v-6.82702c0,-0.01966 -0.01595,-0.03561 -0.03561,-0.03561h-22.2734v-27.27245c0,-0.01966 -0.01595,-0.03561 -0.03561,-0.03561h-6.82702c-0.01966,0 -0.03561,0.01595 -0.03561,0.03561v34.13508c0,0.01966 0.01595,0.03561 0.03561,0.03561z" data-paper-data="{&quot;glyphName&quot;:&quot;L&quot;,&quot;glyphIndex&quot;:7,&quot;word&quot;:2}" fill="#c7c9c7"></path><path d="M346.13488,239.00103h6.82445c0.01966,0 0.03561,-0.01595 0.03561,-0.03561v-13.62013h15.41619v13.62013c0,0.01966 0.01595,0.03561 0.03561,0.03561h6.82445c0.01966,0 0.03561,-0.01595 0.03561,-0.03561v-34.13593c0,-0.01966 -0.01595,-0.03561 -0.03561,-0.03561h-6.82445c-0.01966,0 -0.03561,0.01595 -0.03561,0.03561v13.62013h-15.41619v-13.62013c0,-0.01966 -0.01595,-0.03561 -0.03561,-0.03561h-6.82445c-0.01966,0 -0.03561,0.01595 -0.03561,0.03561v34.13593c0,0.01966 0.01595,0.03561 0.03561,0.03561z" data-paper-data="{&quot;glyphName&quot;:&quot;H&quot;,&quot;glyphIndex&quot;:8,&quot;word&quot;:2}" fill="#c7c9c7"></path><path d="M379.66649,239.00018h29.13659c0.01966,0 0.03561,-0.01595 0.03561,-0.03561v-6.82702c0,-0.01966 -0.01595,-0.03561 -0.03561,-0.03561h-22.27369v-6.7558h15.44923c0.01966,0 0.03561,-0.01595 0.03561,-0.03561v-6.82702c0,-0.01966 -0.01595,-0.03561 -0.03561,-0.03561h-15.44923v-6.7558h22.27369c0.01966,0 0.03561,-0.01595 0.03561,-0.03561v-6.82702c0,-0.01966 -0.01595,-0.03561 -0.03561,-0.03561h-29.13659c-0.01966,0 -0.03561,0.01595 -0.03561,0.03561v34.13508c0,0.01966 0.01595,0.03561 0.03561,0.03561z" data-paper-data="{&quot;glyphName&quot;:&quot;E&quot;,&quot;glyphIndex&quot;:9,&quot;word&quot;:2}" fill="#c7c9c7"></path><path d="M453.34691,204.8087c-0.00655,-0.00912 -0.01738,-0.01481 -0.02877,-0.01481h-17.80989c-0.01966,0 -0.03561,0.01595 -0.03561,0.03561v22.9773l-14.21948,-22.99581c-0.00655,-0.01054 -0.01795,-0.01709 -0.03019,-0.01709h-8.02486c-0.01966,0 -0.03561,0.01595 -0.03561,0.03561v34.13508c0,0.01966 0.01595,0.03561 0.03561,0.03561h6.82246c0.01966,0 0.03561,-0.01595 0.03561,-0.03561v-22.97701l14.2229,22.99581c0.00655,0.01054 0.01795,0.01709 0.03019,0.01709h8.02458c0.01424,0 0.02421,-0.00969 0.02991,-0.02193c0.00057,-0.00171 0.00342,-0.00114 0.00399,-0.00285l10.9843,-34.13508c0.0037,-0.01111 0.00171,-0.02279 -0.00513,-0.0319zM453.17372,227.48547c0.00655,0.00912 0.01738,0.01481 0.02877,0.01481h7.40073c0.01139,0 0.02222,-0.0057 0.02877,-0.01481c0.00655,-0.00912 0.00855,-0.02079 0.00513,-0.03162l-3.70036,-11.49961c-0.0094,-0.02963 -0.0584,-0.02963 -0.0678,0l-3.70036,11.49961c-0.00342,0.01082 -0.00142,0.0225 0.00513,0.03162zM462.83369,234.28229c-0.00484,-0.01481 -0.01852,-0.02478 -0.0339,-0.02478h-11.79331c-0.01538,0 -0.02934,0.00997 -0.0339,0.02478l-1.50407,4.67146c-0.00342,0.01082 -0.00171,0.0225 0.00513,0.03162c0.00655,0.00912 0.01738,0.01481 0.02877,0.01481h14.80146c0.01139,0 0.02222,-0.0057 0.02877,-0.01481c0.00684,-0.00912 0.00855,-0.02079 0.00513,-0.03162z" data-paper-data="{&quot;glyphName&quot;:&quot;&quot;,&quot;glyphIndex&quot;:10,&quot;lastGlyphOfWord&quot;:true,&quot;word&quot;:2}" fill="#c7c9c7"></path></g><g data-paper-data="{&quot;isContainerElementsWrapper&quot;:true}" fill="#ffffff" fill-rule="evenodd"><path d="M65,278.87038c0,1.94208 0.68667,3.59985 2.06001,4.97331c1.37346,1.37346 3.03132,2.06019 4.97358,2.06019h405.9329c1.94208,0 3.59985,-0.68673 4.97331,-2.06019c1.37346,-1.37346 2.06019,-3.03123 2.06019,-4.97331v-87.74075c0,-1.94208 -0.68673,-3.59985 -2.06019,-4.97331c-1.37346,-1.37346 -3.03123,-2.06019 -4.97331,-2.06019h-405.9329c-1.94232,0 -3.60018,0.68673 -4.97358,2.06019c-1.37334,1.37346 -2.06001,3.03123 -2.06001,4.97331zM72.0336,281.75464c-0.79643,0 -1.47622,-0.2816 -2.03936,-0.84481c-0.56321,-0.56321 -0.84481,-1.24303 -0.84481,-2.03946v-87.74075c0,-0.79643 0.2816,-1.47625 0.84481,-2.03946c0.56315,-0.56321 1.24294,-0.84481 2.03936,-0.84481h405.9329c0.79643,0 1.47625,0.2816 2.03946,0.84481c0.56321,0.56321 0.84481,1.24303 0.84481,2.03946v87.74075c0,0.79643 -0.2816,1.47625 -0.84481,2.03946c-0.56321,0.56321 -1.24303,0.84481 -2.03946,0.84481z" data-paper-data="{&quot;isBaseLogoContainer&quot;:true}"></path></g></g></g></svg>