<!-- Generator: Adobe Illustrator 23.1.1, SVG Export Plug-In  -->
<svg version="1.1" xmlns="http://www.w3.org/2000/svg" xmlns:xlink="http://www.w3.org/1999/xlink" x="0px" y="0px"
	 width="496.68px" height="333.81px" viewBox="0 0 496.68 333.81" style="enable-background:new 0 0 496.68 333.81;"
	 xml:space="preserve">
<style type="text/css">
	.st0{fill:url(#SVGID_1_);}
	.st1{fill:url(#SVGID_2_);}
	.st2{fill:url(#SVGID_3_);}
	.st3{fill:url(#SVGID_4_);}
	.st4{fill:url(#SVGID_5_);}
	.st5{fill:url(#SVGID_6_);}
	.st6{fill:url(#SVGID_7_);}
	.st7{fill:#FFFFFF;}
	.st8{fill:url(#SVGID_8_);}
	.st9{fill:url(#SVGID_9_);}
	.st10{fill:url(#SVGID_10_);}
	.st11{fill:url(#SVGID_11_);}
	.st12{fill:url(#SVGID_12_);}
	.st13{fill:url(#SVGID_13_);}
	.st14{fill:url(#SVGID_14_);}
</style>
<defs>
</defs>
<radialGradient id="SVGID_1_" cx="258.4613" cy="325.6164" r="57.4165" gradientTransform="matrix(0.9987 -0.0501 0.0501 0.9987 43.7595 -246.4009)" gradientUnits="userSpaceOnUse">
	<stop  offset="0" style="stop-color:#A93594"/>
	<stop  offset="0.1652" style="stop-color:#A53594"/>
	<stop  offset="0.3655" style="stop-color:#9B3794"/>
	<stop  offset="0.5841" style="stop-color:#8A3995"/>
	<stop  offset="0.8141" style="stop-color:#733A96"/>
	<stop  offset="1" style="stop-color:#593C97"/>
</radialGradient>
<path class="st0" d="M376.67,46.5c-0.2-0.8-0.5-1.7-0.8-2.5c-1.1,0.8-2.6,1-4,0.6c-1.3,0.9-3,1.4-4.6,1.6
	c-9.3,1.8-19.6,4.1-28.9,1.4c-0.1,0-0.3-0.1-0.4-0.1c-0.5,0.2-1,0.4-1.6,0.5c-0.5,0.1-1,0.1-1.5,0.1c-1,8-5.3,15.4-12.2,21
	c-10,8.1-22.7,9.8-33.8,4.6c-10.8-5.1-23.7-0.4-28.7,10.4c-5.1,10.8-0.4,23.7,10.4,28.7c1,0.5,2,0.9,3,1.3c0.4-0.3,0.8-0.5,1.3-0.6
	c4.9-1.3,10.3-0.2,14.6,2.4c1.2,0.7,2,1.9,2.2,3.2c14.3,2.1,29-0.1,42.3-6.3c1.3-12.3,11.4-22.2,24.1-22.8c1.5-0.1,3,0,4.4,0.2
	c9.5-12.1,15-26.5,15.9-41.6C377.57,48.1,376.97,47.4,376.67,46.5L376.67,46.5z"/>
<radialGradient id="SVGID_2_" cx="240.7209" cy="310.4178" r="32.0197" gradientTransform="matrix(0.9573 -0.2891 0.4558 1.5093 -54.6817 -288.1451)" gradientUnits="userSpaceOnUse">
	<stop  offset="0" style="stop-color:#593C97"/>
	<stop  offset="1" style="stop-color:#A93594;stop-opacity:0"/>
</radialGradient>
<path class="st1" d="M374.17,57.4c-2-0.9-2.7-3.6-1.7-5.5c0.3-0.6,0.8-1.1,1.3-1.5c0.3-3.4,1-6.7,1.7-10c0.2-1.1,0.4-2.2,0.6-3.3
	c0.2-1.2,0.2-1.5,0.2-2.7c0-1,0-1.9-0.1-2.9c0-0.5-0.1-1-0.2-1.5c0-0.1,0-0.2,0-0.2s0-0.1,0-0.2c-0.3-1.4-0.8-2.7-1.3-4.1
	c-0.1-0.1-0.2-0.5-0.3-0.5c-0.2-0.3-0.3-0.6-0.5-0.9c-0.3-0.6-0.7-1.1-1.1-1.7c-0.1-0.1-0.2-0.2-0.3-0.3c0,0-0.1-0.1-0.1-0.2
	c-0.2-0.2-0.3-0.3-0.5-0.5c-0.5-0.5-1-0.9-1.5-1.4c-0.3-0.2-0.6-0.4-0.8-0.6c-0.1,0-0.1-0.1-0.1-0.1s-0.1-0.1-0.2-0.1
	c-0.6-0.4-1.3-0.8-1.9-1.1c-1.7-0.9-2.7-1.3-4.3-1.7c-0.8-0.2-1.5-0.4-2.3-0.6c-0.4-0.1-0.7-0.1-1.1-0.2c-0.1,0-0.7-0.1-0.7-0.1
	c-1.4-0.1-2.7,0-4,0.2c0,0,0,0-0.1,0h-0.1c-0.3,0.1-0.6,0.2-0.9,0.2c-0.6,0.2-1.2,0.4-1.7,0.6c-0.1,0-0.2,0.1-0.3,0.1
	c0,0-0.1,0-0.1,0.1c-0.3,0.2-0.5,0.3-0.8,0.4c-0.5,0.3-1,0.7-1.5,1c-0.2,0.1-0.3,0.3-0.5,0.4c0.8-0.6,0,0-0.1,0.1
	c-0.4,0.4-0.9,0.9-1.3,1.3c-0.4,0.5-0.8,0.9-1.1,1.4c-0.1,0.1-0.3,0.4-0.4,0.5c-0.2,0.3-0.3,0.5-0.5,0.8c-0.7,1.1-1.3,2.3-1.8,3.5
	c0,0.1-0.3,0.9-0.4,0.9c-0.1,0.2-0.2,0.4-0.2,0.7c-0.2,0.7-0.4,1.3-0.6,2c-0.4,1.4-0.6,2.8-0.8,4.2c-0.1,0.5-0.1,1-0.2,1.4
	c0,0.1-0.1,0.5-0.1,0.7c0,0.6-0.1,1.2-0.1,1.9c0,1.5,0,3,0.1,4.4c0.1,2.2-1.7,4.1-3.8,4.3c-0.8,0-1.5-0.1-2.1-0.5
	c-0.6,8.7-4.9,16.9-12.4,22.9c-9.1,7.3-20.3,9.4-30.7,5.8c-0.7,1.8-2.8,3.2-4.7,2.6c-2.2-0.7-4.5-1.1-6.9-1.4c-0.1,0-0.3,0-0.4,0
	c-0.2,0-0.4,0-0.7,0c-0.6,0-1.1,0-1.7,0c-1.1,0-2.2,0.1-3.3,0.2c-0.5,0.1-1,0.1-1.6,0.2c-0.2,0.1-0.5,0.1-0.7,0.2
	c-0.3,0.1-0.7,0.2-1,0.3c-0.3,0.4-0.6,0.7-0.9,1.1c-0.5,0.7-1.1,1.4-1.6,2.1s-0.6,0.8-1.1,1.7c-2,3.2-3.1,5.9-3.5,9.7
	c0,0.4-0.1,1.6-0.1,2.4c0,1,0.1,1.9,0.2,2.9c0.2,2,0.5,3.2,1,5.1c0.9,3.3,2.1,6.4,3.4,9.5c0.4-0.1,0.8-0.2,1.2-0.2
	c8.7,0.2,17.6,1.6,25.5,5.4c1.3,0.6,2,1.9,2.1,3.3c12.4,0.8,24.9-1.5,36.4-6.9c1.3-12.3,11.4-22.2,24.1-22.8c1.5-0.1,3,0,4.4,0.2
	c7.4-9.5,12.4-20.4,14.7-31.9C376.07,58.1,375.17,57.8,374.17,57.4z"/>
<radialGradient id="SVGID_3_" cx="374.5269" cy="368.9325" r="62.2434" gradientTransform="matrix(0.9987 -0.0501 0.0501 0.9987 43.7595 -246.4009)" gradientUnits="userSpaceOnUse">
	<stop  offset="0.2118" style="stop-color:#A93594"/>
	<stop  offset="0.3139" style="stop-color:#A53594"/>
	<stop  offset="0.4377" style="stop-color:#9B3794"/>
	<stop  offset="0.5728" style="stop-color:#8A3995"/>
	<stop  offset="0.7149" style="stop-color:#733A96"/>
	<stop  offset="0.8298" style="stop-color:#593C97"/>
</radialGradient>
<path class="st2" d="M385.87,179.9c3.7,0,6.1,2.6,8.1,5.4c0.8,1.1,1.6,2.3,2.5,3.5c0.1,0.2,0.9,1,0.2,0.3l0.5,0.5
	c0.6,0.6,1.2,1.1,1.8,1.6s1.2,1.1,1.9,1.6c0.2,0.2,0.4,0.3,0.7,0.5c0.1,0.1,0.4,0.3,0.5,0.3c1.2,0.8,2.4,1.5,3.7,2
	c0.3,0.1,0.6,0.3,0.9,0.4l0.8,0.3c0.7,0.2,1.4,0.4,2.1,0.5c0.6,0.1,1.3,0.3,1.9,0.3h0.8h0.8c2.6-0.1,5.4-0.7,7.3-1.8
	c1.3-0.7,2.6-1.5,3.7-2.4c0.6-0.5,0.3-0.2,0.2-0.1c0.3-0.3,0.6-0.6,0.9-0.9c0.5-0.5,1-1,1.4-1.5c1-1.2,1.4-1.7,2.1-3.2
	c0.2-0.5,0.5-0.9,0.7-1.4c0-0.1,0.3-0.8,0.2-0.6c0-0.1,0.1-0.3,0.1-0.4c0.4-1.2,0.6-2.4,0.8-3.6c0-0.3,0.1-0.6,0.1-0.8v-0.1
	c0,0,0-0.1,0-0.2c0-0.6,0-1.1,0-1.7c0-0.7-0.1-1.4-0.1-2c0-0.2-0.1-0.4-0.1-0.7v-0.1v-0.1c-0.3-1-0.5-1.9-0.9-2.8
	c0,0-0.4-0.7-0.4-0.8c-0.1-0.2-0.2-0.4-0.3-0.5c-0.2-0.3-0.4-0.5-0.6-0.8c-0.4-0.4-0.8-0.8-1.3-1.2c-0.1-0.1-0.2-0.1-0.3-0.2
	c-0.2-0.1-0.5-0.3-0.7-0.4c-1.9-1.1-2.8-3.5-1.7-5.5c0.2-0.4,0.5-0.8,0.8-1.1c-8-8-10.9-19.5-7.8-31.2c2.1-7.8,6.5-14.1,12.4-18.3
	c-0.5-0.9-0.7-2.1-0.5-3.1c-4-2.2-8.4-5.9-8.4-10.2c-1-0.7-1.9-1.4-2.7-2.2c-1.8-1.7-3.9-4.8-4.3-7.7c-0.6-0.6-1.2-1.2-1.8-1.8
	c-0.1-0.1-0.3-0.1-0.4-0.2c-3.9-1.7-8.1-3.8-11.4-6.6c-7.4,6.2-13.6,13.9-18.3,22.6c1.7,3.2,2.8,6.9,3,10.8c0.5,9.6-4.4,18.2-12,23
	c-0.5,15.3,3.5,30.3,11.7,43C384.87,180,385.37,179.8,385.87,179.9L385.87,179.9z"/>
<linearGradient id="SVGID_4_" gradientUnits="userSpaceOnUse" x1="743.6958" y1="-1239.7135" x2="705.2327" y2="-1192.4589" gradientTransform="matrix(0.6708 -0.7416 0.7416 0.6708 836.7253 1386.1588)">
	<stop  offset="3.328284e-03" style="stop-color:#14C3F4"/>
	<stop  offset="1" style="stop-color:#57BF96"/>
</linearGradient>
<circle class="st3" cx="419.67" cy="25.5" r="25.5"/>
<radialGradient id="SVGID_5_" cx="236.7675" cy="366.7252" r="57.4072" fx="201.6005" fy="381.2119" gradientTransform="matrix(0.9987 -0.0501 0.0501 0.9987 43.7595 -246.4009)" gradientUnits="userSpaceOnUse">
	<stop  offset="0.2118" style="stop-color:#A93594"/>
	<stop  offset="0.3139" style="stop-color:#A53594"/>
	<stop  offset="0.4377" style="stop-color:#9B3794"/>
	<stop  offset="0.5728" style="stop-color:#8A3995"/>
	<stop  offset="0.7149" style="stop-color:#733A96"/>
	<stop  offset="0.8298" style="stop-color:#593C97"/>
</radialGradient>
<path class="st4" d="M304.17,136c4.3,11.3,2.6,23-4.6,31.8c0.1,0,0.1,0.1,0.2,0.1c2,1,2.6,3.5,1.7,5.5c-0.7,1.5-1.4,3-2,4.5
	c-0.5,1.4-0.8,2.1-1.2,3.7c-0.3,1.2-0.7,3-0.8,3.8c0-0.1,0,0.8,0,1v0.8c0,0.4,0.1,0.9,0.1,1.3c0,0.1,0.1,0.4,0.1,0.6
	c0.1,0.2,0.2,0.8,0.2,0.9c0.1,0.3,0.2,0.6,0.3,0.9c0.1,0.4,0.5,1.3,0.6,1.5c0.6,1.3,1.4,2.4,2.2,3.5c0.2,0.2,0.3,0.4,0.5,0.6
	c0.1,0.1,0.3,0.4,0.4,0.4c0.4,0.4,0.8,0.8,1.3,1.2c0.3,0.3,0.7,0.6,1.1,0.8c0.1,0.1,0.2,0.1,0.2,0.1c0.3,0.2,0.5,0.3,0.8,0.5
	c0.5,0.3,1.1,0.6,1.6,0.8c0.2,0.1,0.4,0.2,0.7,0.3h0.1h0.2c1,0.3,1.9,0.5,2.9,0.7c0.4,0.1,0.7,0.1,1.1,0.2h0.2
	c0.5,0,1.1,0.1,1.6,0.1c1.1,0,2.3,0,3.4-0.2c0.3,0,0.7-0.1,1-0.1c0.1,0,0.3,0,0.3-0.1c0.6-0.1,1.2-0.3,1.8-0.5s1.2-0.4,1.7-0.6
	c0.2-0.1,0.4-0.2,0.6-0.3c0.1,0,0.3-0.1,0.3-0.1c1.2-0.6,2.3-1.3,3.3-2.1c0.5-0.3,0.9-0.7,1.4-1.1c0,0,0.8-0.7,0.9-0.8
	c0.9-0.9,1.7-1.8,2.5-2.8c0.9-1.1,1-1.3,1.8-2.5c0.6-1,1.2-2.1,1.6-3.3c0.1-0.2,0.1-0.4,0.2-0.5c0-0.1,0.1-0.4,0.2-0.5
	c0.2-0.6,0.3-1.1,0.5-1.7c0.5-2.1,2.7-3.6,4.8-3.1c0.6,0.1,1.1,0.4,1.6,0.8c9.6-18.7,11-40.9,3.1-61.7c-10.5-27.4-34.8-46-63.4-48.6
	c-11.9-1-22.4,7.7-23.4,19.6c-1.1,11.9,7.7,22.4,19.6,23.4C289.57,116.1,299.57,123.9,304.17,136L304.17,136z"/>
<radialGradient id="SVGID_6_" cx="299.7986" cy="484.3219" r="119.7902" gradientTransform="matrix(0.9987 -0.0501 0.0501 0.9987 43.7595 -246.4009)" gradientUnits="userSpaceOnUse">
	<stop  offset="0" style="stop-color:#A93594"/>
	<stop  offset="0.1652" style="stop-color:#A53594"/>
	<stop  offset="0.3655" style="stop-color:#9B3794"/>
	<stop  offset="0.5841" style="stop-color:#8A3995"/>
	<stop  offset="0.8141" style="stop-color:#733A96"/>
	<stop  offset="1" style="stop-color:#593C97"/>
</radialGradient>
<path class="st5" d="M360.27,131.5c29.3-1.5,56.1,13.3,70,38.5c5.7,10.5,1.9,23.6-8.5,29.3c-10.5,5.7-23.6,1.9-29.3-8.5
	c-5.9-10.8-17.1-16.8-30-16.2c-12.9,0.7-23.4,7.8-28.2,19.1c-4.7,11-17.4,16.1-28.3,11.4c-11-4.7-16.1-17.3-11.4-28.3
	C305.77,150.3,330.97,133,360.27,131.5L360.27,131.5z"/>
<linearGradient id="SVGID_7_" gradientUnits="userSpaceOnUse" x1="310.2497" y1="346.3554" x2="361.3506" y2="302.3976" gradientTransform="matrix(0.9987 -0.0501 0.0501 0.9987 43.7595 -246.4009)">
	<stop  offset="3.328284e-03" style="stop-color:#14C3F4"/>
	<stop  offset="1" style="stop-color:#57BF96"/>
</linearGradient>
<path class="st6" d="M368.97,102.2c-24.6-16-37.6-43.7-34-72.3c1.5-11.8,12.3-20.2,24.1-18.7s20.2,12.3,18.7,24.1
	c-1.5,12.2,4,23.7,14.8,30.7s23.5,7.5,34.1,1.1c10.2-6.1,23.5-2.8,29.6,7.4s2.8,23.5-7.4,29.6C424.17,119,393.57,118.2,368.97,102.2
	L368.97,102.2z"/>
<g>
	<g>
		<path class="st7" d="M88.96,141.18c4.57,0,7.53,3.5,5.65,13.18s-6.19,13.18-10.76,13.18H62.06l-30.13,155.5
			c-1.08,5.38-6.19,9.69-17.76,9.69s-15.06-4.3-13.99-9.69l30.13-155.5H8.52c-4.57,0-7.26-3.5-5.38-13.18
			c1.88-9.69,5.92-13.18,10.49-13.18H88.96z"/>
		<path class="st7" d="M154.6,230.23c5.65,0,8.34,3.23,6.99,9.15l-10.49,55.15c-5.11,26.09-27.44,39.28-48.69,39.28
			s-38.2-13.18-33.09-39.28l22.6-117.29c5.11-26.09,27.44-39.28,48.69-39.28s38.2,13.18,33.09,39.28l-5.65,28.79
			c-0.81,5.38-5.92,9.68-17.49,9.68s-15.07-4.3-14.26-9.68l6.46-32.01c1.08-6.19-1.88-9.69-7.26-9.69c-5.38,0-9.95,3.5-11.03,9.69
			l-24.21,123.75c-1.08,6.19,1.88,9.69,7.26,9.69c5.38,0,9.95-3.5,11.03-9.69l8.07-41.16h-4.3c-4.57,0-7.53-3.5-5.65-13.18
			c1.88-9.69,6.19-13.18,10.76-13.18h27.17V230.23z"/>
		<path class="st7" d="M188.76,151.94c1.34-6.99,5.38-10.76,11.57-10.76h51.92c4.57,0,7.53,3.5,5.65,13.18
			c-1.88,9.68-6.19,13.18-10.76,13.18h-29.86l-10.49,54.61h23.67c4.57,0,7.26,3.5,5.38,13.18s-5.92,13.18-10.49,13.18h-23.67
			l-14.53,74.52c-1.08,5.38-6.19,9.69-17.75,9.69c-11.57,0-15.07-4.3-13.99-9.69L188.76,151.94z"/>
	</g>
</g>
<g>
	<g>
		<path class="st7" d="M285.82,232.38c1.09,0,1.67,0.86,1.27,2.99c-0.4,2.13-1.33,3-2.42,3h-6.51l-6.39,32.88
			c-0.23,1.21-1.32,2.13-3.97,2.13s-3.4-0.92-3.17-2.13l6.39-32.88h-6.51c-1.09,0-1.67-0.86-1.27-3c0.4-2.13,1.33-2.99,2.42-2.99
			L285.82,232.38L285.82,232.38z"/>
		<path class="st7" d="M297.22,271.25c-0.23,1.21-1.38,2.13-3.97,2.13s-3.4-0.92-3.17-2.13l7.08-36.51c0.29-1.5,1.09-2.36,2.53-2.36
			h8.12c6.39,0,10.31,3.8,8.98,10.48l-0.75,3.8c-0.69,3.63-2.36,6.22-5.53,8c2.65,1.5,3.4,4.2,2.13,10.65l-1.15,5.93
			c-0.23,1.21-1.38,2.13-3.97,2.13s-3.4-0.92-3.17-2.13l1.15-5.82c1.04-5.41,0.75-8.29-2.94-8.29h-2.59L297.22,271.25z
			 M304.08,251.15c2.53,0,4.32-1.67,4.9-4.67l0.63-3.46c0.58-2.99-0.52-4.66-3.05-4.66h-2.94l-2.48,12.78h2.94V251.15z"/>
		<path class="st7" d="M351.59,242.63L346,271.25c-0.23,1.21-1.38,2.13-3.97,2.13s-3.4-0.92-3.17-2.13l2.42-12.38h-8.29l-2.42,12.38
			c-0.23,1.21-1.38,2.13-3.97,2.13s-3.4-0.92-3.17-2.13l5.59-28.62c1.27-6.74,6.97-10.94,13.42-10.94
			C348.88,231.69,352.86,235.89,351.59,242.63z M334.14,252.88h8.29l2.07-10.6c0.52-2.76-0.75-4.61-3.28-4.61s-4.49,1.84-5.01,4.61
			L334.14,252.88z"/>
		<path class="st7" d="M365.88,271.25c-0.23,1.21-1.38,2.13-3.97,2.13s-3.4-0.92-3.17-2.13l7.26-37.2c0.23-1.21,1.38-2.13,3.97-2.13
			s3.4,0.92,3.17,2.13L365.88,271.25z"/>
		<path class="st7" d="M385.74,271.25c-0.23,1.21-1.38,2.13-3.97,2.13s-3.4-0.92-3.17-2.13l5.59-28.62
			c1.27-6.74,6.97-10.94,13.42-10.94s10.42,4.2,9.16,10.94l-5.59,28.62c-0.23,1.21-1.38,2.13-3.97,2.13s-3.4-0.92-3.17-2.13
			l5.64-28.97c0.52-2.76-0.75-4.61-3.28-4.61s-4.49,1.84-5.01,4.61L385.74,271.25z"/>
		<path class="st7" d="M421.05,271.25c-0.23,1.21-1.38,2.13-3.97,2.13s-3.4-0.92-3.17-2.13l7.26-37.2c0.23-1.21,1.38-2.13,3.97-2.13
			s3.4,0.92,3.17,2.13L421.05,271.25z"/>
		<path class="st7" d="M440.92,271.25c-0.23,1.21-1.38,2.13-3.97,2.13s-3.4-0.92-3.17-2.13l5.59-28.62
			c1.27-6.74,6.97-10.94,13.42-10.94s10.42,4.2,9.16,10.94l-5.59,28.62c-0.23,1.21-1.38,2.13-3.97,2.13s-3.4-0.92-3.17-2.13
			l5.64-28.97c0.52-2.76-0.75-4.61-3.28-4.61s-4.49,1.84-5.01,4.61L440.92,271.25z"/>
		<path class="st7" d="M486.42,257.26h-2.71c-1.09,0-1.67-0.86-1.27-2.99c0.46-2.13,1.38-2.99,2.48-2.99h7.72
			c1.44,0,1.96,0.81,1.67,2.3l-1.79,9.1c-1.32,6.74-6.97,10.94-13.42,10.94s-10.48-4.2-9.16-10.94l3.92-20.04
			c1.27-6.74,6.97-10.94,13.42-10.94s10.42,4.2,9.16,10.94l-0.58,3c-0.23,1.21-1.44,2.13-4.03,2.13s-3.34-0.92-3.11-2.13l0.63-3.34
			c0.52-2.76-0.75-4.61-3.28-4.61s-4.49,1.84-5.01,4.61l-4.03,20.73c-0.52,2.76,0.69,4.61,3.23,4.61c2.53,0,4.55-1.84,5.07-4.61
			L486.42,257.26z"/>
	</g>
</g>
<g>
	<g>
		<path class="st7" d="M234.22,319.28c-0.93,4.89-4.8,8.07-9.79,8.07s-7.58-3.18-6.66-8.07l0.73-3.67c0.69-3.62,2.59-5.58,5.19-6.75
			c-1.91-1.13-2.79-3.13-2.1-6.66l0.49-2.4c0.93-4.89,4.35-8.07,9.35-8.07c4.99,0,7.14,3.18,6.21,8.07l-0.29,1.37
			c-0.1,0.64-0.73,1.17-1.76,1.17s-1.37-0.54-1.27-1.17l0.24-1.27c0.69-3.57-0.59-5.43-3.67-5.43s-5.14,1.86-5.82,5.43l-0.44,2.2
			c-0.69,3.57,0.59,5.43,3.67,5.43h10.62c0.64,0,1.03,0.39,0.83,1.37c-0.15,0.98-0.73,1.37-1.37,1.37h-2.4L234.22,319.28z
			 M227.57,310.28c-2.94,0-5.38,1.96-6.07,5.43l-0.64,3.47c-0.73,3.57,1.03,5.43,4.11,5.43s5.53-1.86,6.26-5.43l1.71-8.91h-5.37
			V310.28z"/>
		<path class="st7" d="M266.96,325.99l4.94-25.45c0.73-3.96-0.05-6.07-3.47-6.07s-5.09,2.1-5.82,6.07l-4.94,25.45
			c-0.15,0.64-0.73,1.17-1.76,1.17s-1.42-0.54-1.27-1.17l4.94-25.54c1.08-5.48,4.16-8.71,9.4-8.71c2.98,0,4.7,1.32,5.48,3.42
			c1.57-2.1,3.87-3.42,6.85-3.42c5.24,0,7.05,3.23,5.97,8.71l-4.94,25.54c-0.15,0.64-0.73,1.17-1.76,1.17s-1.42-0.54-1.27-1.17
			l4.94-25.45c0.73-3.96-0.05-6.07-3.47-6.07s-5.09,2.1-5.82,6.07l-4.94,25.45c-0.15,0.64-0.73,1.17-1.76,1.17
			S266.81,326.62,266.96,325.99z"/>
		<path class="st7" d="M292.07,326.77c-0.59,0-1.03-0.39-0.83-1.37l6.17-31.71c0.2-0.93,0.73-1.37,1.32-1.37h12.09
			c0.64,0,1.08,0.39,0.88,1.37c-0.2,0.98-0.78,1.37-1.42,1.37h-10.13l-2.4,12.58h9.1c0.64,0,1.03,0.39,0.83,1.37
			c-0.2,0.98-0.73,1.37-1.37,1.37h-9.1l-2.69,13.65h10.23c0.64,0,1.08,0.39,0.88,1.37c-0.2,0.98-0.73,1.37-1.37,1.37L292.07,326.77
			L292.07,326.77z"/>
		<path class="st7" d="M320.84,300.54l-4.94,25.45c-0.15,0.64-0.73,1.17-1.76,1.17s-1.42-0.54-1.27-1.17l4.94-25.54
			c1.08-5.48,5.04-8.71,10.28-8.71s7.93,3.23,6.85,8.71L330,325.99c-0.15,0.64-0.73,1.17-1.76,1.17s-1.42-0.54-1.27-1.17l4.94-25.45
			c0.73-3.96-0.93-6.07-4.35-6.07C324.12,294.47,321.58,296.58,320.84,300.54z"/>
		<path class="st7" d="M359.36,292.32c0.64,0,1.08,0.39,0.88,1.37c-0.2,0.98-0.78,1.37-1.42,1.37h-6.26l-5.97,30.93
			c-0.15,0.64-0.73,1.17-1.76,1.17s-1.42-0.54-1.27-1.17l5.97-30.93h-6.26c-0.64,0-1.03-0.39-0.83-1.37
			c0.2-0.98,0.73-1.37,1.37-1.37H359.36z"/>
		<path class="st7" d="M361.07,318.65l3.52-18.2c1.08-5.48,5.04-8.71,10.28-8.71s7.93,3.23,6.85,8.71l-3.52,18.2
			c-1.08,5.48-5.04,8.71-10.28,8.71S359.99,324.13,361.07,318.65z M375.16,318.55l3.52-18.01c0.73-3.96-0.93-6.07-4.36-6.07
			c-3.42,0-5.97,2.1-6.7,6.07l-3.52,18.01c-0.78,3.96,0.93,6.07,4.35,6.07C371.88,324.62,374.38,322.51,375.16,318.55z"/>
		<path class="st7" d="M402.76,318.3l-1.47,7.68c-0.15,0.64-0.69,1.17-1.76,1.17c-1.03,0-1.42-0.54-1.27-1.17l1.47-7.68
			c0.88-4.55-0.05-6.51-3.91-6.51h-4.94l-2.74,14.19c-0.15,0.64-0.73,1.17-1.76,1.17s-1.42-0.54-1.27-1.17l6.26-32.39
			c0.2-0.83,0.73-1.27,1.61-1.27h7.29c5.19,0,6.65,3.67,5.68,8.71l-0.44,2.1c-0.78,4.11-2.59,6.12-5.38,7.44
			C403.25,311.75,403.64,313.8,402.76,318.3z M397.09,309.06c3.13,0,4.8-2.84,5.43-5.97l0.39-2.06c0.64-3.28,0-5.97-3.28-5.97h-5.53
			l-2.69,14H397.09z"/>
		<path class="st7" d="M413.14,325.99c-0.15,0.64-0.73,1.17-1.76,1.17s-1.42-0.54-1.27-1.17l6.36-32.88
			c0.15-0.64,0.73-1.17,1.76-1.17s1.42,0.54,1.27,1.17L413.14,325.99z"/>
		<path class="st7" d="M430.41,300.54l-4.94,25.45c-0.15,0.64-0.73,1.17-1.76,1.17s-1.42-0.54-1.27-1.17l4.94-25.54
			c1.08-5.48,5.04-8.71,10.28-8.71s7.93,3.23,6.85,8.71l-4.94,25.54c-0.15,0.64-0.73,1.17-1.76,1.17s-1.42-0.54-1.27-1.17
			l4.94-25.45c0.73-3.96-0.93-6.07-4.35-6.07C433.69,294.47,431.15,296.58,430.41,300.54z"/>
		<path class="st7" d="M466.92,300.54c0.73-3.96-0.93-6.07-4.36-6.07c-3.42,0-5.97,2.1-6.7,6.07l-3.52,18.01
			c-0.78,3.96,0.93,6.07,4.35,6.07c3.43,0,5.92-2.1,6.7-6.07l1.27-6.51h-4.45c-0.64,0-1.03-0.39-0.88-1.37
			c0.2-0.98,0.78-1.37,1.42-1.37h6.36c0.64,0,1.03,0.39,0.83,1.37l-1.52,7.98c-1.08,5.48-5.04,8.71-10.28,8.71s-7.93-3.23-6.85-8.71
			l3.52-18.2c1.08-5.48,5.04-8.71,10.28-8.71s7.93,3.23,6.85,8.71l-0.44,2.3c-0.15,0.64-0.73,1.17-1.76,1.17s-1.42-0.54-1.27-1.17
			L466.92,300.54z"/>
	</g>
</g>
</svg>
